<mxfile host="Electron" modified="2025-04-18T13:52:03.002Z" agent="Mozilla/5.0 (Windows NT 10.0; Win64; x64) AppleWebKit/537.36 (KHTML, like Gecko) draw.io/21.6.8 Chrome/114.0.5735.289 Electron/25.5.0 Safari/537.36" etag="7xRdNs88_oDe2-zJYDHz" version="21.6.8" type="device">
  <diagram id="C5RBs43oDa-KdzZeNtuy" name="Page-1">
    <mxGraphModel dx="9560" dy="5573" grid="1" gridSize="10" guides="1" tooltips="1" connect="1" arrows="1" fold="1" page="1" pageScale="1" pageWidth="3300" pageHeight="5000" math="0" shadow="0">
      <root>
        <mxCell id="WIyWlLk6GJQsqaUBKTNV-0" />
        <mxCell id="WIyWlLk6GJQsqaUBKTNV-1" parent="WIyWlLk6GJQsqaUBKTNV-0" />
        <mxCell id="wdzL4Zp0LJ_PhM9Og0-m-1" value="" style="edgeStyle=orthogonalEdgeStyle;rounded=0;orthogonalLoop=1;jettySize=auto;html=1;" edge="1" parent="WIyWlLk6GJQsqaUBKTNV-1">
          <mxGeometry relative="1" as="geometry">
            <mxPoint x="2704.75" y="148.99999999999994" as="sourcePoint" />
            <mxPoint x="2705" y="179" as="targetPoint" />
          </mxGeometry>
        </mxCell>
        <mxCell id="1M0LoY6MZMl93sKGqAmt-32" value="" style="circle;shape=startState;fillColor=#000000;" parent="WIyWlLk6GJQsqaUBKTNV-1" vertex="1">
          <mxGeometry x="2685" y="120" width="40" height="40" as="geometry" />
        </mxCell>
        <mxCell id="wdzL4Zp0LJ_PhM9Og0-m-2" value="Register" style="rounded=1;whiteSpace=wrap;html=1;" vertex="1" parent="WIyWlLk6GJQsqaUBKTNV-1">
          <mxGeometry x="2665" y="179" width="80" height="50" as="geometry" />
        </mxCell>
        <mxCell id="wdzL4Zp0LJ_PhM9Og0-m-9" value="Send OTP" style="rounded=1;whiteSpace=wrap;html=1;" vertex="1" parent="WIyWlLk6GJQsqaUBKTNV-1">
          <mxGeometry x="2525" y="354" width="80" height="50" as="geometry" />
        </mxCell>
        <mxCell id="wdzL4Zp0LJ_PhM9Og0-m-14" value="" style="rounded=0;orthogonalLoop=1;jettySize=auto;html=1;exitX=0.5;exitY=1;exitDx=0;exitDy=0;fontStyle=0" edge="1" parent="WIyWlLk6GJQsqaUBKTNV-1" source="wdzL4Zp0LJ_PhM9Og0-m-9">
          <mxGeometry relative="1" as="geometry">
            <mxPoint x="2564.75" y="429" as="sourcePoint" />
            <mxPoint x="2565" y="439" as="targetPoint" />
          </mxGeometry>
        </mxCell>
        <mxCell id="wdzL4Zp0LJ_PhM9Og0-m-15" value="" style="edgeStyle=orthogonalEdgeStyle;rounded=0;orthogonalLoop=1;jettySize=auto;html=1;" edge="1" parent="WIyWlLk6GJQsqaUBKTNV-1">
          <mxGeometry relative="1" as="geometry">
            <mxPoint x="2664.63" y="378.99999999999994" as="sourcePoint" />
            <mxPoint x="2605" y="379" as="targetPoint" />
          </mxGeometry>
        </mxCell>
        <mxCell id="wdzL4Zp0LJ_PhM9Og0-m-16" value="" style="edgeStyle=orthogonalEdgeStyle;rounded=0;orthogonalLoop=1;jettySize=auto;html=1;" edge="1" parent="WIyWlLk6GJQsqaUBKTNV-1">
          <mxGeometry relative="1" as="geometry">
            <mxPoint x="2704.81" y="308.99999999999994" as="sourcePoint" />
            <mxPoint x="2705.06" y="339" as="targetPoint" />
          </mxGeometry>
        </mxCell>
        <mxCell id="wdzL4Zp0LJ_PhM9Og0-m-17" value="" style="edgeStyle=orthogonalEdgeStyle;rounded=0;orthogonalLoop=1;jettySize=auto;html=1;" edge="1" parent="WIyWlLk6GJQsqaUBKTNV-1">
          <mxGeometry relative="1" as="geometry">
            <mxPoint x="2704.81" y="229.99999999999994" as="sourcePoint" />
            <mxPoint x="2705.06" y="260" as="targetPoint" />
          </mxGeometry>
        </mxCell>
        <mxCell id="wdzL4Zp0LJ_PhM9Og0-m-18" value="Enter details" style="rounded=1;whiteSpace=wrap;html=1;" vertex="1" parent="WIyWlLk6GJQsqaUBKTNV-1">
          <mxGeometry x="2665" y="259" width="80" height="50" as="geometry" />
        </mxCell>
        <mxCell id="wdzL4Zp0LJ_PhM9Og0-m-19" value="Details Valid" style="rhombus;whiteSpace=wrap;html=1;" vertex="1" parent="WIyWlLk6GJQsqaUBKTNV-1">
          <mxGeometry x="2665" y="339" width="80" height="80" as="geometry" />
        </mxCell>
        <mxCell id="wdzL4Zp0LJ_PhM9Og0-m-20" value="" style="edgeStyle=orthogonalEdgeStyle;rounded=0;orthogonalLoop=1;jettySize=auto;html=1;fontStyle=0" edge="1" parent="WIyWlLk6GJQsqaUBKTNV-1">
          <mxGeometry relative="1" as="geometry">
            <mxPoint x="2525" y="478.99999999999994" as="sourcePoint" />
            <mxPoint x="2455" y="539" as="targetPoint" />
          </mxGeometry>
        </mxCell>
        <mxCell id="wdzL4Zp0LJ_PhM9Og0-m-21" value="OTP Valid" style="rhombus;whiteSpace=wrap;html=1;fontStyle=0" vertex="1" parent="WIyWlLk6GJQsqaUBKTNV-1">
          <mxGeometry x="2525" y="439" width="80" height="80" as="geometry" />
        </mxCell>
        <mxCell id="wdzL4Zp0LJ_PhM9Og0-m-22" value="Register" style="rounded=1;whiteSpace=wrap;html=1;" vertex="1" parent="WIyWlLk6GJQsqaUBKTNV-1">
          <mxGeometry x="2415" y="539" width="80" height="50" as="geometry" />
        </mxCell>
        <mxCell id="wdzL4Zp0LJ_PhM9Og0-m-23" value="" style="rounded=0;orthogonalLoop=1;jettySize=auto;html=1;exitX=0.5;exitY=1;exitDx=0;exitDy=0;" edge="1" parent="WIyWlLk6GJQsqaUBKTNV-1">
          <mxGeometry relative="1" as="geometry">
            <mxPoint x="2455" y="589" as="sourcePoint" />
            <mxPoint x="2455" y="624" as="targetPoint" />
          </mxGeometry>
        </mxCell>
        <mxCell id="wdzL4Zp0LJ_PhM9Og0-m-24" value="" style="edgeStyle=orthogonalEdgeStyle;rounded=0;orthogonalLoop=1;jettySize=auto;html=1;entryX=0.5;entryY=0;entryDx=0;entryDy=0;" edge="1" parent="WIyWlLk6GJQsqaUBKTNV-1" target="wdzL4Zp0LJ_PhM9Og0-m-47">
          <mxGeometry relative="1" as="geometry">
            <mxPoint x="2415" y="664" as="sourcePoint" />
            <mxPoint x="2345" y="724" as="targetPoint" />
          </mxGeometry>
        </mxCell>
        <mxCell id="wdzL4Zp0LJ_PhM9Og0-m-25" value="User" style="rhombus;whiteSpace=wrap;html=1;" vertex="1" parent="WIyWlLk6GJQsqaUBKTNV-1">
          <mxGeometry x="2415" y="624" width="80" height="80" as="geometry" />
        </mxCell>
        <mxCell id="wdzL4Zp0LJ_PhM9Og0-m-26" value="Yes" style="text;html=1;align=center;verticalAlign=middle;resizable=0;points=[];autosize=1;strokeColor=none;fillColor=none;" vertex="1" parent="WIyWlLk6GJQsqaUBKTNV-1">
          <mxGeometry x="2625" y="337" width="40" height="30" as="geometry" />
        </mxCell>
        <mxCell id="wdzL4Zp0LJ_PhM9Og0-m-27" value="Yes" style="text;html=1;align=center;verticalAlign=middle;resizable=0;points=[];autosize=1;strokeColor=none;fillColor=none;" vertex="1" parent="WIyWlLk6GJQsqaUBKTNV-1">
          <mxGeometry x="2480" y="449" width="40" height="30" as="geometry" />
        </mxCell>
        <mxCell id="wdzL4Zp0LJ_PhM9Og0-m-28" value="Yes" style="text;html=1;align=center;verticalAlign=middle;resizable=0;points=[];autosize=1;strokeColor=none;fillColor=none;" vertex="1" parent="WIyWlLk6GJQsqaUBKTNV-1">
          <mxGeometry x="2365" y="637" width="40" height="30" as="geometry" />
        </mxCell>
        <mxCell id="wdzL4Zp0LJ_PhM9Og0-m-39" value="Display Error&lt;br&gt;of Invalid details" style="rounded=1;whiteSpace=wrap;html=1;" vertex="1" parent="WIyWlLk6GJQsqaUBKTNV-1">
          <mxGeometry x="2885" y="354" width="80" height="50" as="geometry" />
        </mxCell>
        <mxCell id="wdzL4Zp0LJ_PhM9Og0-m-40" value="" style="rounded=0;orthogonalLoop=1;jettySize=auto;html=1;exitX=0.5;exitY=1;exitDx=0;exitDy=0;fontStyle=0;entryX=0.229;entryY=0.271;entryDx=0;entryDy=0;entryPerimeter=0;" edge="1" parent="WIyWlLk6GJQsqaUBKTNV-1" source="wdzL4Zp0LJ_PhM9Og0-m-39" target="wdzL4Zp0LJ_PhM9Og0-m-459">
          <mxGeometry relative="1" as="geometry">
            <mxPoint x="2834.75" y="431" as="sourcePoint" />
            <mxPoint x="2845" y="879" as="targetPoint" />
            <Array as="points">
              <mxPoint x="2925" y="879" />
              <mxPoint x="2843" y="880" />
            </Array>
          </mxGeometry>
        </mxCell>
        <mxCell id="wdzL4Zp0LJ_PhM9Og0-m-41" value="" style="edgeStyle=orthogonalEdgeStyle;rounded=0;orthogonalLoop=1;jettySize=auto;html=1;entryX=0;entryY=0.5;entryDx=0;entryDy=0;" edge="1" parent="WIyWlLk6GJQsqaUBKTNV-1" target="wdzL4Zp0LJ_PhM9Og0-m-39">
          <mxGeometry relative="1" as="geometry">
            <mxPoint x="2745.37" y="378.57" as="sourcePoint" />
            <mxPoint x="2805" y="378.56999999999994" as="targetPoint" />
          </mxGeometry>
        </mxCell>
        <mxCell id="wdzL4Zp0LJ_PhM9Og0-m-42" value="No" style="text;html=1;align=center;verticalAlign=middle;resizable=0;points=[];autosize=1;strokeColor=none;fillColor=none;" vertex="1" parent="WIyWlLk6GJQsqaUBKTNV-1">
          <mxGeometry x="2745" y="337" width="40" height="30" as="geometry" />
        </mxCell>
        <mxCell id="wdzL4Zp0LJ_PhM9Og0-m-43" value="" style="edgeStyle=orthogonalEdgeStyle;rounded=0;orthogonalLoop=1;jettySize=auto;html=1;fontStyle=0;entryX=0.5;entryY=0;entryDx=0;entryDy=0;" edge="1" parent="WIyWlLk6GJQsqaUBKTNV-1" target="wdzL4Zp0LJ_PhM9Og0-m-45">
          <mxGeometry relative="1" as="geometry">
            <mxPoint x="2605" y="478.99999999999994" as="sourcePoint" />
            <mxPoint x="2665" y="529" as="targetPoint" />
          </mxGeometry>
        </mxCell>
        <mxCell id="wdzL4Zp0LJ_PhM9Og0-m-44" value="No" style="text;html=1;align=center;verticalAlign=middle;resizable=0;points=[];autosize=1;strokeColor=none;fillColor=none;" vertex="1" parent="WIyWlLk6GJQsqaUBKTNV-1">
          <mxGeometry x="2620" y="449" width="40" height="30" as="geometry" />
        </mxCell>
        <mxCell id="wdzL4Zp0LJ_PhM9Og0-m-45" value="OTP Verification Error" style="rounded=1;whiteSpace=wrap;html=1;" vertex="1" parent="WIyWlLk6GJQsqaUBKTNV-1">
          <mxGeometry x="2625" y="539" width="80" height="50" as="geometry" />
        </mxCell>
        <mxCell id="wdzL4Zp0LJ_PhM9Og0-m-47" value="Display Success Message" style="rounded=1;whiteSpace=wrap;html=1;" vertex="1" parent="WIyWlLk6GJQsqaUBKTNV-1">
          <mxGeometry x="2305" y="729" width="80" height="50" as="geometry" />
        </mxCell>
        <mxCell id="wdzL4Zp0LJ_PhM9Og0-m-50" value="" style="edgeStyle=orthogonalEdgeStyle;rounded=0;orthogonalLoop=1;jettySize=auto;html=1;fontStyle=0;entryX=0.547;entryY=-0.019;entryDx=0;entryDy=0;entryPerimeter=0;" edge="1" parent="WIyWlLk6GJQsqaUBKTNV-1" target="wdzL4Zp0LJ_PhM9Og0-m-52">
          <mxGeometry relative="1" as="geometry">
            <mxPoint x="2495" y="664" as="sourcePoint" />
            <mxPoint x="2554" y="727" as="targetPoint" />
          </mxGeometry>
        </mxCell>
        <mxCell id="wdzL4Zp0LJ_PhM9Og0-m-51" value="No" style="text;html=1;align=center;verticalAlign=middle;resizable=0;points=[];autosize=1;strokeColor=none;fillColor=none;" vertex="1" parent="WIyWlLk6GJQsqaUBKTNV-1">
          <mxGeometry x="2510" y="637" width="40" height="30" as="geometry" />
        </mxCell>
        <mxCell id="wdzL4Zp0LJ_PhM9Og0-m-52" value="Display Error" style="rounded=1;whiteSpace=wrap;html=1;" vertex="1" parent="WIyWlLk6GJQsqaUBKTNV-1">
          <mxGeometry x="2510" y="729" width="80" height="50" as="geometry" />
        </mxCell>
        <mxCell id="wdzL4Zp0LJ_PhM9Og0-m-53" value="" style="rounded=0;orthogonalLoop=1;jettySize=auto;html=1;exitX=0.5;exitY=1;exitDx=0;exitDy=0;" edge="1" parent="WIyWlLk6GJQsqaUBKTNV-1" source="wdzL4Zp0LJ_PhM9Og0-m-47">
          <mxGeometry relative="1" as="geometry">
            <mxPoint x="2380" y="829" as="sourcePoint" />
            <mxPoint x="2345" y="1680" as="targetPoint" />
          </mxGeometry>
        </mxCell>
        <mxCell id="wdzL4Zp0LJ_PhM9Og0-m-56" value="" style="ellipse;html=1;shape=endState;fillColor=#000000;strokeColor=#ff0000;" vertex="1" parent="WIyWlLk6GJQsqaUBKTNV-1">
          <mxGeometry x="2645" y="679" width="40" height="40" as="geometry" />
        </mxCell>
        <mxCell id="wdzL4Zp0LJ_PhM9Og0-m-59" value="" style="endArrow=classic;html=1;rounded=0;entryX=0.5;entryY=0;entryDx=0;entryDy=0;exitX=0.5;exitY=1;exitDx=0;exitDy=0;" edge="1" parent="WIyWlLk6GJQsqaUBKTNV-1" source="wdzL4Zp0LJ_PhM9Og0-m-45" target="wdzL4Zp0LJ_PhM9Og0-m-56">
          <mxGeometry width="50" height="50" relative="1" as="geometry">
            <mxPoint x="2595" y="619" as="sourcePoint" />
            <mxPoint x="2645" y="569" as="targetPoint" />
          </mxGeometry>
        </mxCell>
        <mxCell id="wdzL4Zp0LJ_PhM9Og0-m-60" value="" style="rounded=0;orthogonalLoop=1;jettySize=auto;html=1;fontStyle=0;exitX=0.5;exitY=1;exitDx=0;exitDy=0;entryX=-0.5;entryY=0.756;entryDx=0;entryDy=0;entryPerimeter=0;" edge="1" parent="WIyWlLk6GJQsqaUBKTNV-1" source="wdzL4Zp0LJ_PhM9Og0-m-52" target="wdzL4Zp0LJ_PhM9Og0-m-459">
          <mxGeometry relative="1" as="geometry">
            <mxPoint x="2669" y="919" as="sourcePoint" />
            <mxPoint x="2805" y="879" as="targetPoint" />
            <Array as="points">
              <mxPoint x="2550" y="879" />
              <mxPoint x="2805" y="879" />
            </Array>
          </mxGeometry>
        </mxCell>
        <mxCell id="wdzL4Zp0LJ_PhM9Og0-m-64" value="" style="edgeStyle=none;orthogonalLoop=1;jettySize=auto;html=1;rounded=0;exitX=0.5;exitY=1;exitDx=0;exitDy=0;" edge="1" parent="WIyWlLk6GJQsqaUBKTNV-1">
          <mxGeometry width="80" relative="1" as="geometry">
            <mxPoint x="2825" y="899" as="sourcePoint" />
            <mxPoint x="2825" y="959" as="targetPoint" />
            <Array as="points" />
          </mxGeometry>
        </mxCell>
        <mxCell id="wdzL4Zp0LJ_PhM9Og0-m-65" value="LogIn" style="rounded=1;whiteSpace=wrap;html=1;" vertex="1" parent="WIyWlLk6GJQsqaUBKTNV-1">
          <mxGeometry x="2785" y="959" width="80" height="50" as="geometry" />
        </mxCell>
        <mxCell id="wdzL4Zp0LJ_PhM9Og0-m-66" value="Send OTP" style="rounded=1;whiteSpace=wrap;html=1;" vertex="1" parent="WIyWlLk6GJQsqaUBKTNV-1">
          <mxGeometry x="2645" y="1164" width="80" height="50" as="geometry" />
        </mxCell>
        <mxCell id="wdzL4Zp0LJ_PhM9Og0-m-67" value="" style="rounded=0;orthogonalLoop=1;jettySize=auto;html=1;exitX=0.5;exitY=1;exitDx=0;exitDy=0;fontStyle=0" edge="1" parent="WIyWlLk6GJQsqaUBKTNV-1" source="wdzL4Zp0LJ_PhM9Og0-m-66">
          <mxGeometry relative="1" as="geometry">
            <mxPoint x="2684.75" y="1239" as="sourcePoint" />
            <mxPoint x="2685" y="1249" as="targetPoint" />
          </mxGeometry>
        </mxCell>
        <mxCell id="wdzL4Zp0LJ_PhM9Og0-m-68" value="" style="edgeStyle=orthogonalEdgeStyle;rounded=0;orthogonalLoop=1;jettySize=auto;html=1;" edge="1" parent="WIyWlLk6GJQsqaUBKTNV-1">
          <mxGeometry relative="1" as="geometry">
            <mxPoint x="2784.63" y="1189" as="sourcePoint" />
            <mxPoint x="2725" y="1189" as="targetPoint" />
          </mxGeometry>
        </mxCell>
        <mxCell id="wdzL4Zp0LJ_PhM9Og0-m-69" value="" style="edgeStyle=orthogonalEdgeStyle;rounded=0;orthogonalLoop=1;jettySize=auto;html=1;" edge="1" parent="WIyWlLk6GJQsqaUBKTNV-1">
          <mxGeometry relative="1" as="geometry">
            <mxPoint x="2824.81" y="1119" as="sourcePoint" />
            <mxPoint x="2825.06" y="1149" as="targetPoint" />
          </mxGeometry>
        </mxCell>
        <mxCell id="wdzL4Zp0LJ_PhM9Og0-m-70" value="Valid Credentials" style="rhombus;whiteSpace=wrap;html=1;" vertex="1" parent="WIyWlLk6GJQsqaUBKTNV-1">
          <mxGeometry x="2785" y="1149" width="80" height="80" as="geometry" />
        </mxCell>
        <mxCell id="wdzL4Zp0LJ_PhM9Og0-m-71" value="Yes" style="text;html=1;align=center;verticalAlign=middle;resizable=0;points=[];autosize=1;strokeColor=none;fillColor=none;" vertex="1" parent="WIyWlLk6GJQsqaUBKTNV-1">
          <mxGeometry x="2745" y="1147" width="40" height="30" as="geometry" />
        </mxCell>
        <mxCell id="wdzL4Zp0LJ_PhM9Og0-m-72" value="Display Error&lt;br&gt;of Invalid credentials" style="rounded=1;whiteSpace=wrap;html=1;" vertex="1" parent="WIyWlLk6GJQsqaUBKTNV-1">
          <mxGeometry x="3005" y="1164" width="80" height="50" as="geometry" />
        </mxCell>
        <mxCell id="wdzL4Zp0LJ_PhM9Og0-m-73" value="" style="edgeStyle=orthogonalEdgeStyle;rounded=0;orthogonalLoop=1;jettySize=auto;html=1;entryX=0;entryY=0.5;entryDx=0;entryDy=0;" edge="1" parent="WIyWlLk6GJQsqaUBKTNV-1" target="wdzL4Zp0LJ_PhM9Og0-m-72">
          <mxGeometry relative="1" as="geometry">
            <mxPoint x="2865.37" y="1188.57" as="sourcePoint" />
            <mxPoint x="2925" y="1188.57" as="targetPoint" />
          </mxGeometry>
        </mxCell>
        <mxCell id="wdzL4Zp0LJ_PhM9Og0-m-74" value="No" style="text;html=1;align=center;verticalAlign=middle;resizable=0;points=[];autosize=1;strokeColor=none;fillColor=none;" vertex="1" parent="WIyWlLk6GJQsqaUBKTNV-1">
          <mxGeometry x="2865" y="1147" width="40" height="30" as="geometry" />
        </mxCell>
        <mxCell id="wdzL4Zp0LJ_PhM9Og0-m-75" value="" style="edgeStyle=none;orthogonalLoop=1;jettySize=auto;html=1;rounded=0;exitX=0.5;exitY=1;exitDx=0;exitDy=0;" edge="1" parent="WIyWlLk6GJQsqaUBKTNV-1">
          <mxGeometry width="80" relative="1" as="geometry">
            <mxPoint x="2825" y="1009" as="sourcePoint" />
            <mxPoint x="2825" y="1069" as="targetPoint" />
            <Array as="points" />
          </mxGeometry>
        </mxCell>
        <mxCell id="wdzL4Zp0LJ_PhM9Og0-m-76" value="Enter Credentials" style="rounded=1;whiteSpace=wrap;html=1;" vertex="1" parent="WIyWlLk6GJQsqaUBKTNV-1">
          <mxGeometry x="2785" y="1069" width="80" height="50" as="geometry" />
        </mxCell>
        <mxCell id="wdzL4Zp0LJ_PhM9Og0-m-77" value="" style="edgeStyle=orthogonalEdgeStyle;rounded=0;orthogonalLoop=1;jettySize=auto;html=1;fontStyle=0" edge="1" parent="WIyWlLk6GJQsqaUBKTNV-1">
          <mxGeometry relative="1" as="geometry">
            <mxPoint x="2645" y="1288" as="sourcePoint" />
            <mxPoint x="2575" y="1348" as="targetPoint" />
          </mxGeometry>
        </mxCell>
        <mxCell id="wdzL4Zp0LJ_PhM9Og0-m-78" value="OTP Valid" style="rhombus;whiteSpace=wrap;html=1;fontStyle=0" vertex="1" parent="WIyWlLk6GJQsqaUBKTNV-1">
          <mxGeometry x="2645" y="1248" width="80" height="80" as="geometry" />
        </mxCell>
        <mxCell id="wdzL4Zp0LJ_PhM9Og0-m-79" value="LogIn" style="rounded=1;whiteSpace=wrap;html=1;" vertex="1" parent="WIyWlLk6GJQsqaUBKTNV-1">
          <mxGeometry x="2535" y="1348" width="80" height="50" as="geometry" />
        </mxCell>
        <mxCell id="wdzL4Zp0LJ_PhM9Og0-m-80" value="" style="rounded=0;orthogonalLoop=1;jettySize=auto;html=1;exitX=0.5;exitY=1;exitDx=0;exitDy=0;" edge="1" parent="WIyWlLk6GJQsqaUBKTNV-1">
          <mxGeometry relative="1" as="geometry">
            <mxPoint x="2575" y="1398" as="sourcePoint" />
            <mxPoint x="2575" y="1433" as="targetPoint" />
          </mxGeometry>
        </mxCell>
        <mxCell id="wdzL4Zp0LJ_PhM9Og0-m-81" value="" style="edgeStyle=orthogonalEdgeStyle;rounded=0;orthogonalLoop=1;jettySize=auto;html=1;" edge="1" parent="WIyWlLk6GJQsqaUBKTNV-1">
          <mxGeometry relative="1" as="geometry">
            <mxPoint x="2535" y="1473" as="sourcePoint" />
            <mxPoint x="2405" y="1680" as="targetPoint" />
            <Array as="points">
              <mxPoint x="2405" y="1474" />
            </Array>
          </mxGeometry>
        </mxCell>
        <mxCell id="wdzL4Zp0LJ_PhM9Og0-m-82" value="Logged In" style="rhombus;whiteSpace=wrap;html=1;" vertex="1" parent="WIyWlLk6GJQsqaUBKTNV-1">
          <mxGeometry x="2535" y="1433" width="80" height="80" as="geometry" />
        </mxCell>
        <mxCell id="wdzL4Zp0LJ_PhM9Og0-m-83" value="Yes" style="text;html=1;align=center;verticalAlign=middle;resizable=0;points=[];autosize=1;strokeColor=none;fillColor=none;" vertex="1" parent="WIyWlLk6GJQsqaUBKTNV-1">
          <mxGeometry x="2600" y="1258" width="40" height="30" as="geometry" />
        </mxCell>
        <mxCell id="wdzL4Zp0LJ_PhM9Og0-m-84" value="Yes" style="text;html=1;align=center;verticalAlign=middle;resizable=0;points=[];autosize=1;strokeColor=none;fillColor=none;" vertex="1" parent="WIyWlLk6GJQsqaUBKTNV-1">
          <mxGeometry x="2485" y="1446" width="40" height="30" as="geometry" />
        </mxCell>
        <mxCell id="wdzL4Zp0LJ_PhM9Og0-m-85" value="" style="edgeStyle=orthogonalEdgeStyle;rounded=0;orthogonalLoop=1;jettySize=auto;html=1;fontStyle=0;entryX=0.5;entryY=0;entryDx=0;entryDy=0;" edge="1" parent="WIyWlLk6GJQsqaUBKTNV-1" target="wdzL4Zp0LJ_PhM9Og0-m-87">
          <mxGeometry relative="1" as="geometry">
            <mxPoint x="2725" y="1288" as="sourcePoint" />
            <mxPoint x="2785" y="1338" as="targetPoint" />
          </mxGeometry>
        </mxCell>
        <mxCell id="wdzL4Zp0LJ_PhM9Og0-m-86" value="No" style="text;html=1;align=center;verticalAlign=middle;resizable=0;points=[];autosize=1;strokeColor=none;fillColor=none;" vertex="1" parent="WIyWlLk6GJQsqaUBKTNV-1">
          <mxGeometry x="2740" y="1258" width="40" height="30" as="geometry" />
        </mxCell>
        <mxCell id="wdzL4Zp0LJ_PhM9Og0-m-87" value="OTP Verification Error" style="rounded=1;whiteSpace=wrap;html=1;" vertex="1" parent="WIyWlLk6GJQsqaUBKTNV-1">
          <mxGeometry x="2745" y="1348" width="80" height="50" as="geometry" />
        </mxCell>
        <mxCell id="wdzL4Zp0LJ_PhM9Og0-m-91" value="" style="endArrow=classic;html=1;rounded=0;entryX=1;entryY=0;entryDx=0;entryDy=0;exitX=0.5;exitY=1;exitDx=0;exitDy=0;" edge="1" parent="WIyWlLk6GJQsqaUBKTNV-1" source="wdzL4Zp0LJ_PhM9Og0-m-87" target="wdzL4Zp0LJ_PhM9Og0-m-386">
          <mxGeometry width="50" height="50" relative="1" as="geometry">
            <mxPoint x="2715" y="1428" as="sourcePoint" />
            <mxPoint x="2785" y="1488" as="targetPoint" />
            <Array as="points">
              <mxPoint x="2785" y="1656" />
            </Array>
          </mxGeometry>
        </mxCell>
        <mxCell id="wdzL4Zp0LJ_PhM9Og0-m-92" value="" style="edgeStyle=orthogonalEdgeStyle;rounded=0;orthogonalLoop=1;jettySize=auto;html=1;fontStyle=0;entryX=0.547;entryY=-0.019;entryDx=0;entryDy=0;entryPerimeter=0;" edge="1" parent="WIyWlLk6GJQsqaUBKTNV-1" target="wdzL4Zp0LJ_PhM9Og0-m-94">
          <mxGeometry relative="1" as="geometry">
            <mxPoint x="2615" y="1473" as="sourcePoint" />
            <mxPoint x="2674" y="1536" as="targetPoint" />
          </mxGeometry>
        </mxCell>
        <mxCell id="wdzL4Zp0LJ_PhM9Og0-m-93" value="No" style="text;html=1;align=center;verticalAlign=middle;resizable=0;points=[];autosize=1;strokeColor=none;fillColor=none;" vertex="1" parent="WIyWlLk6GJQsqaUBKTNV-1">
          <mxGeometry x="2630" y="1446" width="40" height="30" as="geometry" />
        </mxCell>
        <mxCell id="wdzL4Zp0LJ_PhM9Og0-m-94" value="Display Error" style="rounded=1;whiteSpace=wrap;html=1;" vertex="1" parent="WIyWlLk6GJQsqaUBKTNV-1">
          <mxGeometry x="2655" y="1511" width="80" height="50" as="geometry" />
        </mxCell>
        <mxCell id="wdzL4Zp0LJ_PhM9Og0-m-96" value="" style="shape=rect;html=1;fillColor=strokeColor;verticalLabelPosition=bottom;labelBackgroundColor=#ffffff;verticalAlign=top;direction=south;" vertex="1" parent="WIyWlLk6GJQsqaUBKTNV-1">
          <mxGeometry x="363" y="1980" width="2110" height="4" as="geometry" />
        </mxCell>
        <mxCell id="wdzL4Zp0LJ_PhM9Og0-m-114" value="" style="endArrow=classic;html=1;rounded=0;exitX=0.5;exitY=1;exitDx=0;exitDy=0;" edge="1" parent="WIyWlLk6GJQsqaUBKTNV-1">
          <mxGeometry width="50" height="50" relative="1" as="geometry">
            <mxPoint x="1069" y="1981" as="sourcePoint" />
            <mxPoint x="1069.4" y="2061" as="targetPoint" />
          </mxGeometry>
        </mxCell>
        <mxCell id="wdzL4Zp0LJ_PhM9Og0-m-115" value="Add Bank Account" style="rounded=1;whiteSpace=wrap;html=1;" vertex="1" parent="WIyWlLk6GJQsqaUBKTNV-1">
          <mxGeometry x="1029" y="2061" width="80" height="50" as="geometry" />
        </mxCell>
        <mxCell id="wdzL4Zp0LJ_PhM9Og0-m-117" value="" style="rounded=0;orthogonalLoop=1;jettySize=auto;html=1;entryX=1;entryY=1;entryDx=0;entryDy=0;" edge="1" parent="WIyWlLk6GJQsqaUBKTNV-1" target="wdzL4Zp0LJ_PhM9Og0-m-386">
          <mxGeometry relative="1" as="geometry">
            <mxPoint x="3045" y="1214" as="sourcePoint" />
            <mxPoint x="3045" y="1359" as="targetPoint" />
            <Array as="points">
              <mxPoint x="3045" y="1684" />
            </Array>
          </mxGeometry>
        </mxCell>
        <mxCell id="wdzL4Zp0LJ_PhM9Og0-m-121" value="Send OTP" style="rounded=1;whiteSpace=wrap;html=1;" vertex="1" parent="WIyWlLk6GJQsqaUBKTNV-1">
          <mxGeometry x="892" y="2266" width="80" height="50" as="geometry" />
        </mxCell>
        <mxCell id="wdzL4Zp0LJ_PhM9Og0-m-122" value="" style="rounded=0;orthogonalLoop=1;jettySize=auto;html=1;exitX=0.5;exitY=1;exitDx=0;exitDy=0;fontStyle=0" edge="1" parent="WIyWlLk6GJQsqaUBKTNV-1" source="wdzL4Zp0LJ_PhM9Og0-m-121">
          <mxGeometry relative="1" as="geometry">
            <mxPoint x="931.75" y="2341" as="sourcePoint" />
            <mxPoint x="932" y="2351" as="targetPoint" />
          </mxGeometry>
        </mxCell>
        <mxCell id="wdzL4Zp0LJ_PhM9Og0-m-123" value="" style="edgeStyle=orthogonalEdgeStyle;rounded=0;orthogonalLoop=1;jettySize=auto;html=1;" edge="1" parent="WIyWlLk6GJQsqaUBKTNV-1">
          <mxGeometry relative="1" as="geometry">
            <mxPoint x="1031.63" y="2291" as="sourcePoint" />
            <mxPoint x="972" y="2291" as="targetPoint" />
          </mxGeometry>
        </mxCell>
        <mxCell id="wdzL4Zp0LJ_PhM9Og0-m-124" value="" style="edgeStyle=orthogonalEdgeStyle;rounded=0;orthogonalLoop=1;jettySize=auto;html=1;" edge="1" parent="WIyWlLk6GJQsqaUBKTNV-1">
          <mxGeometry relative="1" as="geometry">
            <mxPoint x="1071.81" y="2221" as="sourcePoint" />
            <mxPoint x="1072.06" y="2251" as="targetPoint" />
          </mxGeometry>
        </mxCell>
        <mxCell id="wdzL4Zp0LJ_PhM9Og0-m-125" value="Valid Details" style="rhombus;whiteSpace=wrap;html=1;" vertex="1" parent="WIyWlLk6GJQsqaUBKTNV-1">
          <mxGeometry x="1032" y="2251" width="80" height="80" as="geometry" />
        </mxCell>
        <mxCell id="wdzL4Zp0LJ_PhM9Og0-m-126" value="Yes" style="text;html=1;align=center;verticalAlign=middle;resizable=0;points=[];autosize=1;strokeColor=none;fillColor=none;" vertex="1" parent="WIyWlLk6GJQsqaUBKTNV-1">
          <mxGeometry x="992" y="2249" width="40" height="30" as="geometry" />
        </mxCell>
        <mxCell id="wdzL4Zp0LJ_PhM9Og0-m-127" value="Display Error&lt;br&gt;of Invalid Acc. Details" style="rounded=1;whiteSpace=wrap;html=1;" vertex="1" parent="WIyWlLk6GJQsqaUBKTNV-1">
          <mxGeometry x="1192" y="2266" width="80" height="50" as="geometry" />
        </mxCell>
        <mxCell id="wdzL4Zp0LJ_PhM9Og0-m-128" value="" style="edgeStyle=orthogonalEdgeStyle;rounded=0;orthogonalLoop=1;jettySize=auto;html=1;entryX=0;entryY=0.5;entryDx=0;entryDy=0;" edge="1" parent="WIyWlLk6GJQsqaUBKTNV-1" target="wdzL4Zp0LJ_PhM9Og0-m-127">
          <mxGeometry relative="1" as="geometry">
            <mxPoint x="1112.37" y="2290.5699999999997" as="sourcePoint" />
            <mxPoint x="1172" y="2290.5699999999997" as="targetPoint" />
          </mxGeometry>
        </mxCell>
        <mxCell id="wdzL4Zp0LJ_PhM9Og0-m-129" value="No" style="text;html=1;align=center;verticalAlign=middle;resizable=0;points=[];autosize=1;strokeColor=none;fillColor=none;" vertex="1" parent="WIyWlLk6GJQsqaUBKTNV-1">
          <mxGeometry x="1112" y="2249" width="40" height="30" as="geometry" />
        </mxCell>
        <mxCell id="wdzL4Zp0LJ_PhM9Og0-m-130" value="" style="edgeStyle=none;orthogonalLoop=1;jettySize=auto;html=1;rounded=0;exitX=0.5;exitY=1;exitDx=0;exitDy=0;" edge="1" parent="WIyWlLk6GJQsqaUBKTNV-1">
          <mxGeometry width="80" relative="1" as="geometry">
            <mxPoint x="1072" y="2111" as="sourcePoint" />
            <mxPoint x="1072" y="2171" as="targetPoint" />
            <Array as="points" />
          </mxGeometry>
        </mxCell>
        <mxCell id="wdzL4Zp0LJ_PhM9Og0-m-131" value="Enter Account Details" style="rounded=1;whiteSpace=wrap;html=1;" vertex="1" parent="WIyWlLk6GJQsqaUBKTNV-1">
          <mxGeometry x="1032" y="2171" width="80" height="50" as="geometry" />
        </mxCell>
        <mxCell id="wdzL4Zp0LJ_PhM9Og0-m-132" value="" style="edgeStyle=orthogonalEdgeStyle;rounded=0;orthogonalLoop=1;jettySize=auto;html=1;fontStyle=0" edge="1" parent="WIyWlLk6GJQsqaUBKTNV-1">
          <mxGeometry relative="1" as="geometry">
            <mxPoint x="892" y="2390" as="sourcePoint" />
            <mxPoint x="822" y="2450" as="targetPoint" />
          </mxGeometry>
        </mxCell>
        <mxCell id="wdzL4Zp0LJ_PhM9Og0-m-133" value="OTP Valid" style="rhombus;whiteSpace=wrap;html=1;fontStyle=0" vertex="1" parent="WIyWlLk6GJQsqaUBKTNV-1">
          <mxGeometry x="892" y="2350" width="80" height="80" as="geometry" />
        </mxCell>
        <mxCell id="wdzL4Zp0LJ_PhM9Og0-m-134" value="Add Account" style="rounded=1;whiteSpace=wrap;html=1;" vertex="1" parent="WIyWlLk6GJQsqaUBKTNV-1">
          <mxGeometry x="782" y="2450" width="80" height="50" as="geometry" />
        </mxCell>
        <mxCell id="wdzL4Zp0LJ_PhM9Og0-m-136" value="Yes" style="text;html=1;align=center;verticalAlign=middle;resizable=0;points=[];autosize=1;strokeColor=none;fillColor=none;" vertex="1" parent="WIyWlLk6GJQsqaUBKTNV-1">
          <mxGeometry x="847" y="2360" width="40" height="30" as="geometry" />
        </mxCell>
        <mxCell id="wdzL4Zp0LJ_PhM9Og0-m-137" value="" style="edgeStyle=orthogonalEdgeStyle;rounded=0;orthogonalLoop=1;jettySize=auto;html=1;fontStyle=0;entryX=0.5;entryY=0;entryDx=0;entryDy=0;" edge="1" parent="WIyWlLk6GJQsqaUBKTNV-1" target="wdzL4Zp0LJ_PhM9Og0-m-139">
          <mxGeometry relative="1" as="geometry">
            <mxPoint x="972" y="2390" as="sourcePoint" />
            <mxPoint x="1032" y="2440" as="targetPoint" />
          </mxGeometry>
        </mxCell>
        <mxCell id="wdzL4Zp0LJ_PhM9Og0-m-138" value="No" style="text;html=1;align=center;verticalAlign=middle;resizable=0;points=[];autosize=1;strokeColor=none;fillColor=none;" vertex="1" parent="WIyWlLk6GJQsqaUBKTNV-1">
          <mxGeometry x="987" y="2360" width="40" height="30" as="geometry" />
        </mxCell>
        <mxCell id="wdzL4Zp0LJ_PhM9Og0-m-139" value="OTP Verification Error" style="rounded=1;whiteSpace=wrap;html=1;" vertex="1" parent="WIyWlLk6GJQsqaUBKTNV-1">
          <mxGeometry x="1072" y="2463" width="80" height="50" as="geometry" />
        </mxCell>
        <mxCell id="wdzL4Zp0LJ_PhM9Og0-m-144" value="" style="rounded=0;orthogonalLoop=1;jettySize=auto;html=1;exitX=0.5;exitY=1;exitDx=0;exitDy=0;fontStyle=0" edge="1" parent="WIyWlLk6GJQsqaUBKTNV-1">
          <mxGeometry relative="1" as="geometry">
            <mxPoint x="824" y="2500" as="sourcePoint" />
            <mxPoint x="824" y="2535" as="targetPoint" />
          </mxGeometry>
        </mxCell>
        <mxCell id="wdzL4Zp0LJ_PhM9Og0-m-145" value="" style="edgeStyle=orthogonalEdgeStyle;rounded=0;orthogonalLoop=1;jettySize=auto;html=1;fontStyle=0" edge="1" parent="WIyWlLk6GJQsqaUBKTNV-1">
          <mxGeometry relative="1" as="geometry">
            <mxPoint x="784" y="2574" as="sourcePoint" />
            <mxPoint x="714" y="2634" as="targetPoint" />
          </mxGeometry>
        </mxCell>
        <mxCell id="wdzL4Zp0LJ_PhM9Og0-m-146" value="Account Added&amp;nbsp;" style="rhombus;whiteSpace=wrap;html=1;fontStyle=0" vertex="1" parent="WIyWlLk6GJQsqaUBKTNV-1">
          <mxGeometry x="784" y="2534" width="80" height="80" as="geometry" />
        </mxCell>
        <mxCell id="wdzL4Zp0LJ_PhM9Og0-m-147" value="Display Success&lt;br&gt;Message" style="rounded=1;whiteSpace=wrap;html=1;" vertex="1" parent="WIyWlLk6GJQsqaUBKTNV-1">
          <mxGeometry x="674" y="2634" width="80" height="50" as="geometry" />
        </mxCell>
        <mxCell id="wdzL4Zp0LJ_PhM9Og0-m-148" value="" style="rounded=0;orthogonalLoop=1;jettySize=auto;html=1;exitX=0.5;exitY=1;exitDx=0;exitDy=0;" edge="1" parent="WIyWlLk6GJQsqaUBKTNV-1">
          <mxGeometry relative="1" as="geometry">
            <mxPoint x="714" y="2684" as="sourcePoint" />
            <mxPoint x="987" y="2935" as="targetPoint" />
            <Array as="points">
              <mxPoint x="714" y="2895" />
              <mxPoint x="987" y="2895" />
            </Array>
          </mxGeometry>
        </mxCell>
        <mxCell id="wdzL4Zp0LJ_PhM9Og0-m-149" value="Yes" style="text;html=1;align=center;verticalAlign=middle;resizable=0;points=[];autosize=1;strokeColor=none;fillColor=none;" vertex="1" parent="WIyWlLk6GJQsqaUBKTNV-1">
          <mxGeometry x="739" y="2544" width="40" height="30" as="geometry" />
        </mxCell>
        <mxCell id="wdzL4Zp0LJ_PhM9Og0-m-150" value="" style="rounded=0;orthogonalLoop=1;jettySize=auto;html=1;fontStyle=0;exitX=1;exitY=0.5;exitDx=0;exitDy=0;exitPerimeter=0;" edge="1" parent="WIyWlLk6GJQsqaUBKTNV-1" source="wdzL4Zp0LJ_PhM9Og0-m-146">
          <mxGeometry relative="1" as="geometry">
            <mxPoint x="864" y="2578.9999999999995" as="sourcePoint" />
            <mxPoint x="1022" y="2644" as="targetPoint" />
            <Array as="points">
              <mxPoint x="1022" y="2574" />
            </Array>
          </mxGeometry>
        </mxCell>
        <mxCell id="wdzL4Zp0LJ_PhM9Og0-m-151" value="No" style="text;html=1;align=center;verticalAlign=middle;resizable=0;points=[];autosize=1;strokeColor=none;fillColor=none;" vertex="1" parent="WIyWlLk6GJQsqaUBKTNV-1">
          <mxGeometry x="879" y="2544" width="40" height="30" as="geometry" />
        </mxCell>
        <mxCell id="wdzL4Zp0LJ_PhM9Og0-m-152" value="Display Error" style="rounded=1;whiteSpace=wrap;html=1;" vertex="1" parent="WIyWlLk6GJQsqaUBKTNV-1">
          <mxGeometry x="987" y="2645" width="80" height="50" as="geometry" />
        </mxCell>
        <mxCell id="wdzL4Zp0LJ_PhM9Og0-m-241" value="" style="ellipse;html=1;shape=endState;fillColor=#000000;strokeColor=#ff0000;" vertex="1" parent="WIyWlLk6GJQsqaUBKTNV-1">
          <mxGeometry x="1005" y="2785" width="40" height="40" as="geometry" />
        </mxCell>
        <mxCell id="wdzL4Zp0LJ_PhM9Og0-m-242" value="" style="endArrow=classic;html=1;rounded=0;entryX=0.5;entryY=0;entryDx=0;entryDy=0;exitX=0.5;exitY=1;exitDx=0;exitDy=0;" edge="1" parent="WIyWlLk6GJQsqaUBKTNV-1" target="wdzL4Zp0LJ_PhM9Og0-m-241">
          <mxGeometry width="50" height="50" relative="1" as="geometry">
            <mxPoint x="1025" y="2695" as="sourcePoint" />
            <mxPoint x="1005" y="2675" as="targetPoint" />
          </mxGeometry>
        </mxCell>
        <mxCell id="wdzL4Zp0LJ_PhM9Og0-m-421" value="" style="edgeStyle=orthogonalEdgeStyle;rounded=0;orthogonalLoop=1;jettySize=auto;html=1;" edge="1" parent="WIyWlLk6GJQsqaUBKTNV-1" source="wdzL4Zp0LJ_PhM9Og0-m-246" target="wdzL4Zp0LJ_PhM9Og0-m-248">
          <mxGeometry relative="1" as="geometry" />
        </mxCell>
        <mxCell id="wdzL4Zp0LJ_PhM9Og0-m-246" value="Make Payment" style="rounded=1;whiteSpace=wrap;html=1;" vertex="1" parent="WIyWlLk6GJQsqaUBKTNV-1">
          <mxGeometry x="949" y="2963" width="80" height="50" as="geometry" />
        </mxCell>
        <mxCell id="wdzL4Zp0LJ_PhM9Og0-m-248" value="Choose UPI Method" style="rounded=1;whiteSpace=wrap;html=1;" vertex="1" parent="WIyWlLk6GJQsqaUBKTNV-1">
          <mxGeometry x="949" y="3053" width="80" height="50" as="geometry" />
        </mxCell>
        <mxCell id="wdzL4Zp0LJ_PhM9Og0-m-249" value="" style="html=1;points=[];perimeter=orthogonalPerimeter;fillColor=strokeColor;direction=south;" vertex="1" parent="WIyWlLk6GJQsqaUBKTNV-1">
          <mxGeometry x="227" y="3167.5" width="1360" height="5" as="geometry" />
        </mxCell>
        <mxCell id="wdzL4Zp0LJ_PhM9Og0-m-250" value="" style="edgeStyle=none;orthogonalLoop=1;jettySize=auto;html=1;rounded=0;exitX=0.5;exitY=1;exitDx=0;exitDy=0;entryX=0.811;entryY=0.438;entryDx=0;entryDy=0;entryPerimeter=0;" edge="1" parent="WIyWlLk6GJQsqaUBKTNV-1" target="wdzL4Zp0LJ_PhM9Og0-m-249">
          <mxGeometry width="80" relative="1" as="geometry">
            <mxPoint x="992" y="3103" as="sourcePoint" />
            <mxPoint x="985" y="3173" as="targetPoint" />
            <Array as="points" />
          </mxGeometry>
        </mxCell>
        <mxCell id="wdzL4Zp0LJ_PhM9Og0-m-251" value="" style="edgeStyle=none;orthogonalLoop=1;jettySize=auto;html=1;rounded=0;" edge="1" parent="WIyWlLk6GJQsqaUBKTNV-1">
          <mxGeometry width="80" relative="1" as="geometry">
            <mxPoint x="307" y="3172" as="sourcePoint" />
            <mxPoint x="307" y="3215" as="targetPoint" />
            <Array as="points" />
          </mxGeometry>
        </mxCell>
        <mxCell id="wdzL4Zp0LJ_PhM9Og0-m-252" value="Scan QR Code&amp;nbsp;" style="rounded=1;whiteSpace=wrap;html=1;" vertex="1" parent="WIyWlLk6GJQsqaUBKTNV-1">
          <mxGeometry x="267" y="3215" width="80" height="50" as="geometry" />
        </mxCell>
        <mxCell id="wdzL4Zp0LJ_PhM9Og0-m-253" value="" style="edgeStyle=none;orthogonalLoop=1;jettySize=auto;html=1;rounded=0;exitX=0.5;exitY=1;exitDx=0;exitDy=0;" edge="1" parent="WIyWlLk6GJQsqaUBKTNV-1" source="wdzL4Zp0LJ_PhM9Og0-m-252">
          <mxGeometry width="80" relative="1" as="geometry">
            <mxPoint x="447" y="3285" as="sourcePoint" />
            <mxPoint x="307" y="3295" as="targetPoint" />
            <Array as="points" />
          </mxGeometry>
        </mxCell>
        <mxCell id="wdzL4Zp0LJ_PhM9Og0-m-254" value="QR Code Valid" style="rhombus;whiteSpace=wrap;html=1;" vertex="1" parent="WIyWlLk6GJQsqaUBKTNV-1">
          <mxGeometry x="267" y="3295" width="80" height="80" as="geometry" />
        </mxCell>
        <mxCell id="wdzL4Zp0LJ_PhM9Og0-m-255" value="" style="edgeStyle=none;orthogonalLoop=1;jettySize=auto;html=1;rounded=0;" edge="1" parent="WIyWlLk6GJQsqaUBKTNV-1">
          <mxGeometry width="80" relative="1" as="geometry">
            <mxPoint x="269" y="3334.55" as="sourcePoint" />
            <mxPoint x="187" y="3395" as="targetPoint" />
            <Array as="points">
              <mxPoint x="187" y="3335" />
            </Array>
          </mxGeometry>
        </mxCell>
        <mxCell id="wdzL4Zp0LJ_PhM9Og0-m-256" value="Proceed With Payment" style="rounded=1;whiteSpace=wrap;html=1;" vertex="1" parent="WIyWlLk6GJQsqaUBKTNV-1">
          <mxGeometry x="147" y="3396" width="80" height="50" as="geometry" />
        </mxCell>
        <mxCell id="wdzL4Zp0LJ_PhM9Og0-m-257" value="" style="edgeStyle=orthogonalEdgeStyle;rounded=0;orthogonalLoop=1;jettySize=auto;html=1;fontStyle=0;entryX=0.5;entryY=0;entryDx=0;entryDy=0;" edge="1" parent="WIyWlLk6GJQsqaUBKTNV-1" target="wdzL4Zp0LJ_PhM9Og0-m-259">
          <mxGeometry relative="1" as="geometry">
            <mxPoint x="347" y="3336" as="sourcePoint" />
            <mxPoint x="407" y="3386" as="targetPoint" />
          </mxGeometry>
        </mxCell>
        <mxCell id="wdzL4Zp0LJ_PhM9Og0-m-258" value="No" style="text;html=1;align=center;verticalAlign=middle;resizable=0;points=[];autosize=1;strokeColor=none;fillColor=none;" vertex="1" parent="WIyWlLk6GJQsqaUBKTNV-1">
          <mxGeometry x="362" y="3306" width="40" height="30" as="geometry" />
        </mxCell>
        <mxCell id="wdzL4Zp0LJ_PhM9Og0-m-259" value="Display Error" style="rounded=1;whiteSpace=wrap;html=1;" vertex="1" parent="WIyWlLk6GJQsqaUBKTNV-1">
          <mxGeometry x="367" y="3396" width="80" height="50" as="geometry" />
        </mxCell>
        <mxCell id="wdzL4Zp0LJ_PhM9Og0-m-260" value="Yes" style="text;html=1;align=center;verticalAlign=middle;resizable=0;points=[];autosize=1;strokeColor=none;fillColor=none;" vertex="1" parent="WIyWlLk6GJQsqaUBKTNV-1">
          <mxGeometry x="217" y="3303" width="40" height="30" as="geometry" />
        </mxCell>
        <mxCell id="wdzL4Zp0LJ_PhM9Og0-m-261" value="" style="ellipse;html=1;shape=endState;fillColor=#000000;strokeColor=#ff0000;" vertex="1" parent="WIyWlLk6GJQsqaUBKTNV-1">
          <mxGeometry x="387" y="3495" width="40" height="40" as="geometry" />
        </mxCell>
        <mxCell id="wdzL4Zp0LJ_PhM9Og0-m-262" value="" style="endArrow=classic;html=1;rounded=0;entryX=0.5;entryY=0;entryDx=0;entryDy=0;exitX=0.5;exitY=1;exitDx=0;exitDy=0;" edge="1" parent="WIyWlLk6GJQsqaUBKTNV-1" target="wdzL4Zp0LJ_PhM9Og0-m-261">
          <mxGeometry width="50" height="50" relative="1" as="geometry">
            <mxPoint x="407" y="3446" as="sourcePoint" />
            <mxPoint x="387" y="3426" as="targetPoint" />
          </mxGeometry>
        </mxCell>
        <mxCell id="wdzL4Zp0LJ_PhM9Og0-m-263" value="" style="rounded=0;orthogonalLoop=1;jettySize=auto;html=1;exitX=0.5;exitY=1;exitDx=0;exitDy=0;" edge="1" parent="WIyWlLk6GJQsqaUBKTNV-1" source="wdzL4Zp0LJ_PhM9Og0-m-256">
          <mxGeometry relative="1" as="geometry">
            <mxPoint x="188" y="3467" as="sourcePoint" />
            <mxPoint x="267" y="3535" as="targetPoint" />
            <Array as="points">
              <mxPoint x="188" y="3495" />
              <mxPoint x="267" y="3495" />
              <mxPoint x="267" y="3535" />
            </Array>
          </mxGeometry>
        </mxCell>
        <mxCell id="wdzL4Zp0LJ_PhM9Og0-m-264" value="" style="html=1;points=[];perimeter=orthogonalPerimeter;fillColor=strokeColor;direction=south;" vertex="1" parent="WIyWlLk6GJQsqaUBKTNV-1">
          <mxGeometry x="227" y="3535" width="1360" height="5" as="geometry" />
        </mxCell>
        <mxCell id="wdzL4Zp0LJ_PhM9Og0-m-278" value="" style="edgeStyle=none;orthogonalLoop=1;jettySize=auto;html=1;rounded=0;" edge="1" parent="WIyWlLk6GJQsqaUBKTNV-1">
          <mxGeometry width="80" relative="1" as="geometry">
            <mxPoint x="617" y="3172" as="sourcePoint" />
            <mxPoint x="617" y="3215" as="targetPoint" />
            <Array as="points" />
          </mxGeometry>
        </mxCell>
        <mxCell id="wdzL4Zp0LJ_PhM9Og0-m-279" value="Enter Mobile Number" style="rounded=1;whiteSpace=wrap;html=1;" vertex="1" parent="WIyWlLk6GJQsqaUBKTNV-1">
          <mxGeometry x="577" y="3215" width="80" height="50" as="geometry" />
        </mxCell>
        <mxCell id="wdzL4Zp0LJ_PhM9Og0-m-280" value="" style="edgeStyle=none;orthogonalLoop=1;jettySize=auto;html=1;rounded=0;exitX=0.5;exitY=1;exitDx=0;exitDy=0;" edge="1" parent="WIyWlLk6GJQsqaUBKTNV-1" source="wdzL4Zp0LJ_PhM9Og0-m-279">
          <mxGeometry width="80" relative="1" as="geometry">
            <mxPoint x="757" y="3285" as="sourcePoint" />
            <mxPoint x="617" y="3295" as="targetPoint" />
            <Array as="points" />
          </mxGeometry>
        </mxCell>
        <mxCell id="wdzL4Zp0LJ_PhM9Og0-m-281" value="MobileNumber Valid" style="rhombus;whiteSpace=wrap;html=1;" vertex="1" parent="WIyWlLk6GJQsqaUBKTNV-1">
          <mxGeometry x="577" y="3295" width="80" height="80" as="geometry" />
        </mxCell>
        <mxCell id="wdzL4Zp0LJ_PhM9Og0-m-282" value="" style="edgeStyle=none;orthogonalLoop=1;jettySize=auto;html=1;rounded=0;" edge="1" parent="WIyWlLk6GJQsqaUBKTNV-1">
          <mxGeometry width="80" relative="1" as="geometry">
            <mxPoint x="579" y="3334.55" as="sourcePoint" />
            <mxPoint x="497" y="3395" as="targetPoint" />
            <Array as="points">
              <mxPoint x="497" y="3335" />
            </Array>
          </mxGeometry>
        </mxCell>
        <mxCell id="wdzL4Zp0LJ_PhM9Og0-m-283" value="Proceed With Payment" style="rounded=1;whiteSpace=wrap;html=1;" vertex="1" parent="WIyWlLk6GJQsqaUBKTNV-1">
          <mxGeometry x="457" y="3396" width="80" height="50" as="geometry" />
        </mxCell>
        <mxCell id="wdzL4Zp0LJ_PhM9Og0-m-284" value="" style="edgeStyle=orthogonalEdgeStyle;rounded=0;orthogonalLoop=1;jettySize=auto;html=1;fontStyle=0;entryX=0.5;entryY=0;entryDx=0;entryDy=0;" edge="1" parent="WIyWlLk6GJQsqaUBKTNV-1" target="wdzL4Zp0LJ_PhM9Og0-m-286">
          <mxGeometry relative="1" as="geometry">
            <mxPoint x="657" y="3336" as="sourcePoint" />
            <mxPoint x="717" y="3386" as="targetPoint" />
          </mxGeometry>
        </mxCell>
        <mxCell id="wdzL4Zp0LJ_PhM9Og0-m-285" value="No" style="text;html=1;align=center;verticalAlign=middle;resizable=0;points=[];autosize=1;strokeColor=none;fillColor=none;" vertex="1" parent="WIyWlLk6GJQsqaUBKTNV-1">
          <mxGeometry x="672" y="3306" width="40" height="30" as="geometry" />
        </mxCell>
        <mxCell id="wdzL4Zp0LJ_PhM9Og0-m-286" value="Display Error" style="rounded=1;whiteSpace=wrap;html=1;" vertex="1" parent="WIyWlLk6GJQsqaUBKTNV-1">
          <mxGeometry x="677" y="3396" width="80" height="50" as="geometry" />
        </mxCell>
        <mxCell id="wdzL4Zp0LJ_PhM9Og0-m-287" value="Yes" style="text;html=1;align=center;verticalAlign=middle;resizable=0;points=[];autosize=1;strokeColor=none;fillColor=none;" vertex="1" parent="WIyWlLk6GJQsqaUBKTNV-1">
          <mxGeometry x="527" y="3303" width="40" height="30" as="geometry" />
        </mxCell>
        <mxCell id="wdzL4Zp0LJ_PhM9Og0-m-288" value="" style="ellipse;html=1;shape=endState;fillColor=#000000;strokeColor=#ff0000;" vertex="1" parent="WIyWlLk6GJQsqaUBKTNV-1">
          <mxGeometry x="697" y="3495" width="40" height="40" as="geometry" />
        </mxCell>
        <mxCell id="wdzL4Zp0LJ_PhM9Og0-m-289" value="" style="endArrow=classic;html=1;rounded=0;entryX=0.5;entryY=0;entryDx=0;entryDy=0;exitX=0.5;exitY=1;exitDx=0;exitDy=0;" edge="1" parent="WIyWlLk6GJQsqaUBKTNV-1" target="wdzL4Zp0LJ_PhM9Og0-m-288">
          <mxGeometry width="50" height="50" relative="1" as="geometry">
            <mxPoint x="717" y="3446" as="sourcePoint" />
            <mxPoint x="697" y="3426" as="targetPoint" />
          </mxGeometry>
        </mxCell>
        <mxCell id="wdzL4Zp0LJ_PhM9Og0-m-290" value="" style="rounded=0;orthogonalLoop=1;jettySize=auto;html=1;exitX=0.5;exitY=1;exitDx=0;exitDy=0;" edge="1" parent="WIyWlLk6GJQsqaUBKTNV-1" source="wdzL4Zp0LJ_PhM9Og0-m-283">
          <mxGeometry relative="1" as="geometry">
            <mxPoint x="498" y="3467" as="sourcePoint" />
            <mxPoint x="577" y="3535" as="targetPoint" />
            <Array as="points">
              <mxPoint x="498" y="3495" />
              <mxPoint x="577" y="3495" />
              <mxPoint x="577" y="3535" />
            </Array>
          </mxGeometry>
        </mxCell>
        <mxCell id="wdzL4Zp0LJ_PhM9Og0-m-291" value="" style="edgeStyle=none;orthogonalLoop=1;jettySize=auto;html=1;rounded=0;" edge="1" parent="WIyWlLk6GJQsqaUBKTNV-1">
          <mxGeometry width="80" relative="1" as="geometry">
            <mxPoint x="932" y="3172" as="sourcePoint" />
            <mxPoint x="932" y="3215" as="targetPoint" />
            <Array as="points" />
          </mxGeometry>
        </mxCell>
        <mxCell id="wdzL4Zp0LJ_PhM9Og0-m-292" value="Enter UPI Id" style="rounded=1;whiteSpace=wrap;html=1;" vertex="1" parent="WIyWlLk6GJQsqaUBKTNV-1">
          <mxGeometry x="892" y="3215" width="80" height="50" as="geometry" />
        </mxCell>
        <mxCell id="wdzL4Zp0LJ_PhM9Og0-m-293" value="" style="edgeStyle=none;orthogonalLoop=1;jettySize=auto;html=1;rounded=0;exitX=0.5;exitY=1;exitDx=0;exitDy=0;" edge="1" parent="WIyWlLk6GJQsqaUBKTNV-1" source="wdzL4Zp0LJ_PhM9Og0-m-292">
          <mxGeometry width="80" relative="1" as="geometry">
            <mxPoint x="1072" y="3285" as="sourcePoint" />
            <mxPoint x="932" y="3295" as="targetPoint" />
            <Array as="points" />
          </mxGeometry>
        </mxCell>
        <mxCell id="wdzL4Zp0LJ_PhM9Og0-m-294" value="UPI Id Valid" style="rhombus;whiteSpace=wrap;html=1;" vertex="1" parent="WIyWlLk6GJQsqaUBKTNV-1">
          <mxGeometry x="892" y="3295" width="80" height="80" as="geometry" />
        </mxCell>
        <mxCell id="wdzL4Zp0LJ_PhM9Og0-m-295" value="" style="edgeStyle=none;orthogonalLoop=1;jettySize=auto;html=1;rounded=0;" edge="1" parent="WIyWlLk6GJQsqaUBKTNV-1">
          <mxGeometry width="80" relative="1" as="geometry">
            <mxPoint x="894" y="3334.55" as="sourcePoint" />
            <mxPoint x="812" y="3395" as="targetPoint" />
            <Array as="points">
              <mxPoint x="812" y="3335" />
            </Array>
          </mxGeometry>
        </mxCell>
        <mxCell id="wdzL4Zp0LJ_PhM9Og0-m-296" value="Proceed With Payment" style="rounded=1;whiteSpace=wrap;html=1;" vertex="1" parent="WIyWlLk6GJQsqaUBKTNV-1">
          <mxGeometry x="772" y="3396" width="80" height="50" as="geometry" />
        </mxCell>
        <mxCell id="wdzL4Zp0LJ_PhM9Og0-m-297" value="" style="edgeStyle=orthogonalEdgeStyle;rounded=0;orthogonalLoop=1;jettySize=auto;html=1;fontStyle=0;entryX=0.5;entryY=0;entryDx=0;entryDy=0;" edge="1" parent="WIyWlLk6GJQsqaUBKTNV-1" target="wdzL4Zp0LJ_PhM9Og0-m-299">
          <mxGeometry relative="1" as="geometry">
            <mxPoint x="972" y="3336" as="sourcePoint" />
            <mxPoint x="1032" y="3386" as="targetPoint" />
          </mxGeometry>
        </mxCell>
        <mxCell id="wdzL4Zp0LJ_PhM9Og0-m-298" value="No" style="text;html=1;align=center;verticalAlign=middle;resizable=0;points=[];autosize=1;strokeColor=none;fillColor=none;" vertex="1" parent="WIyWlLk6GJQsqaUBKTNV-1">
          <mxGeometry x="987" y="3306" width="40" height="30" as="geometry" />
        </mxCell>
        <mxCell id="wdzL4Zp0LJ_PhM9Og0-m-299" value="Display Error" style="rounded=1;whiteSpace=wrap;html=1;" vertex="1" parent="WIyWlLk6GJQsqaUBKTNV-1">
          <mxGeometry x="992" y="3396" width="80" height="50" as="geometry" />
        </mxCell>
        <mxCell id="wdzL4Zp0LJ_PhM9Og0-m-300" value="Yes" style="text;html=1;align=center;verticalAlign=middle;resizable=0;points=[];autosize=1;strokeColor=none;fillColor=none;" vertex="1" parent="WIyWlLk6GJQsqaUBKTNV-1">
          <mxGeometry x="842" y="3303" width="40" height="30" as="geometry" />
        </mxCell>
        <mxCell id="wdzL4Zp0LJ_PhM9Og0-m-301" value="" style="ellipse;html=1;shape=endState;fillColor=#000000;strokeColor=#ff0000;" vertex="1" parent="WIyWlLk6GJQsqaUBKTNV-1">
          <mxGeometry x="1012" y="3495" width="40" height="40" as="geometry" />
        </mxCell>
        <mxCell id="wdzL4Zp0LJ_PhM9Og0-m-302" value="" style="endArrow=classic;html=1;rounded=0;entryX=0.5;entryY=0;entryDx=0;entryDy=0;exitX=0.5;exitY=1;exitDx=0;exitDy=0;" edge="1" parent="WIyWlLk6GJQsqaUBKTNV-1" target="wdzL4Zp0LJ_PhM9Og0-m-301">
          <mxGeometry width="50" height="50" relative="1" as="geometry">
            <mxPoint x="1032" y="3446" as="sourcePoint" />
            <mxPoint x="1012" y="3426" as="targetPoint" />
          </mxGeometry>
        </mxCell>
        <mxCell id="wdzL4Zp0LJ_PhM9Og0-m-303" value="" style="rounded=0;orthogonalLoop=1;jettySize=auto;html=1;exitX=0.5;exitY=1;exitDx=0;exitDy=0;" edge="1" parent="WIyWlLk6GJQsqaUBKTNV-1" source="wdzL4Zp0LJ_PhM9Og0-m-296">
          <mxGeometry relative="1" as="geometry">
            <mxPoint x="813" y="3467" as="sourcePoint" />
            <mxPoint x="892" y="3535" as="targetPoint" />
            <Array as="points">
              <mxPoint x="813" y="3495" />
              <mxPoint x="892" y="3495" />
              <mxPoint x="892" y="3535" />
            </Array>
          </mxGeometry>
        </mxCell>
        <mxCell id="wdzL4Zp0LJ_PhM9Og0-m-304" value="" style="edgeStyle=none;orthogonalLoop=1;jettySize=auto;html=1;rounded=0;" edge="1" parent="WIyWlLk6GJQsqaUBKTNV-1">
          <mxGeometry width="80" relative="1" as="geometry">
            <mxPoint x="1242" y="3170.5" as="sourcePoint" />
            <mxPoint x="1242" y="3213.5" as="targetPoint" />
            <Array as="points" />
          </mxGeometry>
        </mxCell>
        <mxCell id="wdzL4Zp0LJ_PhM9Og0-m-305" value="Transfer b/w accounts" style="rounded=1;whiteSpace=wrap;html=1;" vertex="1" parent="WIyWlLk6GJQsqaUBKTNV-1">
          <mxGeometry x="1202" y="3213.5" width="80" height="50" as="geometry" />
        </mxCell>
        <mxCell id="wdzL4Zp0LJ_PhM9Og0-m-306" value="" style="edgeStyle=none;orthogonalLoop=1;jettySize=auto;html=1;rounded=0;exitX=0.5;exitY=1;exitDx=0;exitDy=0;" edge="1" parent="WIyWlLk6GJQsqaUBKTNV-1" source="wdzL4Zp0LJ_PhM9Og0-m-305">
          <mxGeometry width="80" relative="1" as="geometry">
            <mxPoint x="1382" y="3283.5" as="sourcePoint" />
            <mxPoint x="1242" y="3293.5" as="targetPoint" />
            <Array as="points" />
          </mxGeometry>
        </mxCell>
        <mxCell id="wdzL4Zp0LJ_PhM9Og0-m-307" value="Account Valid" style="rhombus;whiteSpace=wrap;html=1;" vertex="1" parent="WIyWlLk6GJQsqaUBKTNV-1">
          <mxGeometry x="1202" y="3293.5" width="80" height="80" as="geometry" />
        </mxCell>
        <mxCell id="wdzL4Zp0LJ_PhM9Og0-m-308" value="" style="edgeStyle=none;orthogonalLoop=1;jettySize=auto;html=1;rounded=0;" edge="1" parent="WIyWlLk6GJQsqaUBKTNV-1">
          <mxGeometry width="80" relative="1" as="geometry">
            <mxPoint x="1204" y="3333.05" as="sourcePoint" />
            <mxPoint x="1122" y="3393.5" as="targetPoint" />
            <Array as="points">
              <mxPoint x="1122" y="3333.5" />
            </Array>
          </mxGeometry>
        </mxCell>
        <mxCell id="wdzL4Zp0LJ_PhM9Og0-m-309" value="Proceed With Payment" style="rounded=1;whiteSpace=wrap;html=1;" vertex="1" parent="WIyWlLk6GJQsqaUBKTNV-1">
          <mxGeometry x="1082" y="3394.5" width="80" height="50" as="geometry" />
        </mxCell>
        <mxCell id="wdzL4Zp0LJ_PhM9Og0-m-310" value="" style="edgeStyle=orthogonalEdgeStyle;rounded=0;orthogonalLoop=1;jettySize=auto;html=1;fontStyle=0;entryX=0.5;entryY=0;entryDx=0;entryDy=0;" edge="1" parent="WIyWlLk6GJQsqaUBKTNV-1">
          <mxGeometry relative="1" as="geometry">
            <mxPoint x="1282" y="3334.5" as="sourcePoint" />
            <mxPoint x="1341.9999999999995" y="3394.5" as="targetPoint" />
          </mxGeometry>
        </mxCell>
        <mxCell id="wdzL4Zp0LJ_PhM9Og0-m-311" value="No" style="text;html=1;align=center;verticalAlign=middle;resizable=0;points=[];autosize=1;strokeColor=none;fillColor=none;" vertex="1" parent="WIyWlLk6GJQsqaUBKTNV-1">
          <mxGeometry x="1297" y="3304.5" width="40" height="30" as="geometry" />
        </mxCell>
        <mxCell id="wdzL4Zp0LJ_PhM9Og0-m-312" value="Display Error" style="rounded=1;whiteSpace=wrap;html=1;" vertex="1" parent="WIyWlLk6GJQsqaUBKTNV-1">
          <mxGeometry x="1302" y="3391.5" width="80" height="50" as="geometry" />
        </mxCell>
        <mxCell id="wdzL4Zp0LJ_PhM9Og0-m-313" value="Yes" style="text;html=1;align=center;verticalAlign=middle;resizable=0;points=[];autosize=1;strokeColor=none;fillColor=none;" vertex="1" parent="WIyWlLk6GJQsqaUBKTNV-1">
          <mxGeometry x="1152" y="3301.5" width="40" height="30" as="geometry" />
        </mxCell>
        <mxCell id="wdzL4Zp0LJ_PhM9Og0-m-314" value="" style="ellipse;html=1;shape=endState;fillColor=#000000;strokeColor=#ff0000;" vertex="1" parent="WIyWlLk6GJQsqaUBKTNV-1">
          <mxGeometry x="1322" y="3493.5" width="40" height="40" as="geometry" />
        </mxCell>
        <mxCell id="wdzL4Zp0LJ_PhM9Og0-m-315" value="" style="endArrow=classic;html=1;rounded=0;entryX=0.5;entryY=0;entryDx=0;entryDy=0;exitX=0.5;exitY=1;exitDx=0;exitDy=0;" edge="1" parent="WIyWlLk6GJQsqaUBKTNV-1" target="wdzL4Zp0LJ_PhM9Og0-m-314">
          <mxGeometry width="50" height="50" relative="1" as="geometry">
            <mxPoint x="1342" y="3444.5" as="sourcePoint" />
            <mxPoint x="1322" y="3424.5" as="targetPoint" />
          </mxGeometry>
        </mxCell>
        <mxCell id="wdzL4Zp0LJ_PhM9Og0-m-316" value="" style="rounded=0;orthogonalLoop=1;jettySize=auto;html=1;exitX=0.5;exitY=1;exitDx=0;exitDy=0;" edge="1" parent="WIyWlLk6GJQsqaUBKTNV-1" source="wdzL4Zp0LJ_PhM9Og0-m-309">
          <mxGeometry relative="1" as="geometry">
            <mxPoint x="1123" y="3465.5" as="sourcePoint" />
            <mxPoint x="1202" y="3533.5" as="targetPoint" />
            <Array as="points">
              <mxPoint x="1123" y="3493.5" />
              <mxPoint x="1202" y="3493.5" />
              <mxPoint x="1202" y="3533.5" />
            </Array>
          </mxGeometry>
        </mxCell>
        <mxCell id="wdzL4Zp0LJ_PhM9Og0-m-330" value="" style="edgeStyle=none;orthogonalLoop=1;jettySize=auto;html=1;rounded=0;" edge="1" parent="WIyWlLk6GJQsqaUBKTNV-1">
          <mxGeometry width="80" relative="1" as="geometry">
            <mxPoint x="1547" y="3172.5" as="sourcePoint" />
            <mxPoint x="1547" y="3215.5" as="targetPoint" />
            <Array as="points" />
          </mxGeometry>
        </mxCell>
        <mxCell id="wdzL4Zp0LJ_PhM9Og0-m-331" value="recharge / bill" style="rounded=1;whiteSpace=wrap;html=1;" vertex="1" parent="WIyWlLk6GJQsqaUBKTNV-1">
          <mxGeometry x="1507" y="3215.5" width="80" height="50" as="geometry" />
        </mxCell>
        <mxCell id="wdzL4Zp0LJ_PhM9Og0-m-332" value="" style="edgeStyle=none;orthogonalLoop=1;jettySize=auto;html=1;rounded=0;exitX=0.5;exitY=1;exitDx=0;exitDy=0;" edge="1" parent="WIyWlLk6GJQsqaUBKTNV-1" source="wdzL4Zp0LJ_PhM9Og0-m-331">
          <mxGeometry width="80" relative="1" as="geometry">
            <mxPoint x="1687" y="3285.5" as="sourcePoint" />
            <mxPoint x="1547" y="3295.5" as="targetPoint" />
            <Array as="points" />
          </mxGeometry>
        </mxCell>
        <mxCell id="wdzL4Zp0LJ_PhM9Og0-m-333" value="Selection Valid" style="rhombus;whiteSpace=wrap;html=1;" vertex="1" parent="WIyWlLk6GJQsqaUBKTNV-1">
          <mxGeometry x="1507" y="3295.5" width="80" height="80" as="geometry" />
        </mxCell>
        <mxCell id="wdzL4Zp0LJ_PhM9Og0-m-334" value="" style="edgeStyle=none;orthogonalLoop=1;jettySize=auto;html=1;rounded=0;" edge="1" parent="WIyWlLk6GJQsqaUBKTNV-1">
          <mxGeometry width="80" relative="1" as="geometry">
            <mxPoint x="1509" y="3335.05" as="sourcePoint" />
            <mxPoint x="1427" y="3395.5" as="targetPoint" />
            <Array as="points">
              <mxPoint x="1427" y="3335.5" />
            </Array>
          </mxGeometry>
        </mxCell>
        <mxCell id="wdzL4Zp0LJ_PhM9Og0-m-335" value="Proceed With Payment" style="rounded=1;whiteSpace=wrap;html=1;" vertex="1" parent="WIyWlLk6GJQsqaUBKTNV-1">
          <mxGeometry x="1387" y="3396.5" width="80" height="50" as="geometry" />
        </mxCell>
        <mxCell id="wdzL4Zp0LJ_PhM9Og0-m-336" value="" style="edgeStyle=orthogonalEdgeStyle;rounded=0;orthogonalLoop=1;jettySize=auto;html=1;fontStyle=0;entryX=0.5;entryY=0;entryDx=0;entryDy=0;" edge="1" parent="WIyWlLk6GJQsqaUBKTNV-1">
          <mxGeometry relative="1" as="geometry">
            <mxPoint x="1587" y="3336.5" as="sourcePoint" />
            <mxPoint x="1646.9999999999995" y="3396.5" as="targetPoint" />
          </mxGeometry>
        </mxCell>
        <mxCell id="wdzL4Zp0LJ_PhM9Og0-m-337" value="No" style="text;html=1;align=center;verticalAlign=middle;resizable=0;points=[];autosize=1;strokeColor=none;fillColor=none;" vertex="1" parent="WIyWlLk6GJQsqaUBKTNV-1">
          <mxGeometry x="1602" y="3306.5" width="40" height="30" as="geometry" />
        </mxCell>
        <mxCell id="wdzL4Zp0LJ_PhM9Og0-m-338" value="Yes" style="text;html=1;align=center;verticalAlign=middle;resizable=0;points=[];autosize=1;strokeColor=none;fillColor=none;" vertex="1" parent="WIyWlLk6GJQsqaUBKTNV-1">
          <mxGeometry x="1457" y="3303.5" width="40" height="30" as="geometry" />
        </mxCell>
        <mxCell id="wdzL4Zp0LJ_PhM9Og0-m-339" value="" style="ellipse;html=1;shape=endState;fillColor=#000000;strokeColor=#ff0000;" vertex="1" parent="WIyWlLk6GJQsqaUBKTNV-1">
          <mxGeometry x="1627" y="3495.5" width="40" height="40" as="geometry" />
        </mxCell>
        <mxCell id="wdzL4Zp0LJ_PhM9Og0-m-340" value="" style="endArrow=classic;html=1;rounded=0;entryX=0.5;entryY=0;entryDx=0;entryDy=0;exitX=0.5;exitY=1;exitDx=0;exitDy=0;" edge="1" parent="WIyWlLk6GJQsqaUBKTNV-1" target="wdzL4Zp0LJ_PhM9Og0-m-339">
          <mxGeometry width="50" height="50" relative="1" as="geometry">
            <mxPoint x="1647" y="3446.5" as="sourcePoint" />
            <mxPoint x="1627" y="3426.5" as="targetPoint" />
          </mxGeometry>
        </mxCell>
        <mxCell id="wdzL4Zp0LJ_PhM9Og0-m-341" value="" style="rounded=0;orthogonalLoop=1;jettySize=auto;html=1;exitX=0.5;exitY=1;exitDx=0;exitDy=0;" edge="1" parent="WIyWlLk6GJQsqaUBKTNV-1" source="wdzL4Zp0LJ_PhM9Og0-m-335">
          <mxGeometry relative="1" as="geometry">
            <mxPoint x="1428" y="3467.5" as="sourcePoint" />
            <mxPoint x="1507" y="3535.5" as="targetPoint" />
            <Array as="points">
              <mxPoint x="1428" y="3495.5" />
              <mxPoint x="1507" y="3495.5" />
              <mxPoint x="1507" y="3535.5" />
            </Array>
          </mxGeometry>
        </mxCell>
        <mxCell id="wdzL4Zp0LJ_PhM9Og0-m-342" value="Display Error" style="rounded=1;whiteSpace=wrap;html=1;" vertex="1" parent="WIyWlLk6GJQsqaUBKTNV-1">
          <mxGeometry x="1607" y="3396.5" width="80" height="50" as="geometry" />
        </mxCell>
        <mxCell id="wdzL4Zp0LJ_PhM9Og0-m-343" value="" style="edgeStyle=none;orthogonalLoop=1;jettySize=auto;html=1;rounded=0;exitX=0.785;exitY=0.468;exitDx=0;exitDy=0;exitPerimeter=0;" edge="1" parent="WIyWlLk6GJQsqaUBKTNV-1" source="wdzL4Zp0LJ_PhM9Og0-m-264">
          <mxGeometry width="80" relative="1" as="geometry">
            <mxPoint x="867" y="3595" as="sourcePoint" />
            <mxPoint x="951" y="3615" as="targetPoint" />
            <Array as="points" />
          </mxGeometry>
        </mxCell>
        <mxCell id="wdzL4Zp0LJ_PhM9Og0-m-346" value="" style="edgeStyle=orthogonalEdgeStyle;rounded=0;orthogonalLoop=1;jettySize=auto;html=1;" edge="1" parent="WIyWlLk6GJQsqaUBKTNV-1" source="wdzL4Zp0LJ_PhM9Og0-m-344">
          <mxGeometry relative="1" as="geometry">
            <mxPoint x="951" y="3695.0000000000005" as="targetPoint" />
          </mxGeometry>
        </mxCell>
        <mxCell id="wdzL4Zp0LJ_PhM9Og0-m-344" value="Amount" style="rounded=1;whiteSpace=wrap;html=1;" vertex="1" parent="WIyWlLk6GJQsqaUBKTNV-1">
          <mxGeometry x="911" y="3615" width="80" height="50" as="geometry" />
        </mxCell>
        <mxCell id="wdzL4Zp0LJ_PhM9Og0-m-347" value="Amount Valid" style="rhombus;whiteSpace=wrap;html=1;" vertex="1" parent="WIyWlLk6GJQsqaUBKTNV-1">
          <mxGeometry x="911" y="3695" width="80" height="80" as="geometry" />
        </mxCell>
        <mxCell id="wdzL4Zp0LJ_PhM9Og0-m-348" value="" style="edgeStyle=none;orthogonalLoop=1;jettySize=auto;html=1;rounded=0;" edge="1" parent="WIyWlLk6GJQsqaUBKTNV-1">
          <mxGeometry width="80" relative="1" as="geometry">
            <mxPoint x="991" y="3734.62" as="sourcePoint" />
            <mxPoint x="1067" y="3775" as="targetPoint" />
            <Array as="points">
              <mxPoint x="1067" y="3735" />
            </Array>
          </mxGeometry>
        </mxCell>
        <mxCell id="wdzL4Zp0LJ_PhM9Og0-m-349" value="" style="edgeStyle=none;orthogonalLoop=1;jettySize=auto;html=1;rounded=0;" edge="1" parent="WIyWlLk6GJQsqaUBKTNV-1">
          <mxGeometry width="80" relative="1" as="geometry">
            <mxPoint x="911" y="3734.62" as="sourcePoint" />
            <mxPoint x="827" y="3775" as="targetPoint" />
            <Array as="points">
              <mxPoint x="827" y="3735" />
            </Array>
          </mxGeometry>
        </mxCell>
        <mxCell id="wdzL4Zp0LJ_PhM9Og0-m-365" value="" style="edgeStyle=orthogonalEdgeStyle;rounded=0;orthogonalLoop=1;jettySize=auto;html=1;" edge="1" parent="WIyWlLk6GJQsqaUBKTNV-1" source="wdzL4Zp0LJ_PhM9Og0-m-350" target="wdzL4Zp0LJ_PhM9Og0-m-356">
          <mxGeometry relative="1" as="geometry" />
        </mxCell>
        <mxCell id="wdzL4Zp0LJ_PhM9Og0-m-350" value="Enter Pin" style="rounded=1;whiteSpace=wrap;html=1;" vertex="1" parent="WIyWlLk6GJQsqaUBKTNV-1">
          <mxGeometry x="784" y="3775" width="80" height="50" as="geometry" />
        </mxCell>
        <mxCell id="wdzL4Zp0LJ_PhM9Og0-m-351" value="Yes" style="text;html=1;align=center;verticalAlign=middle;resizable=0;points=[];autosize=1;strokeColor=none;fillColor=none;" vertex="1" parent="WIyWlLk6GJQsqaUBKTNV-1">
          <mxGeometry x="866" y="3699" width="40" height="30" as="geometry" />
        </mxCell>
        <mxCell id="wdzL4Zp0LJ_PhM9Og0-m-352" value="No" style="text;html=1;align=center;verticalAlign=middle;resizable=0;points=[];autosize=1;strokeColor=none;fillColor=none;" vertex="1" parent="WIyWlLk6GJQsqaUBKTNV-1">
          <mxGeometry x="997" y="3703" width="40" height="30" as="geometry" />
        </mxCell>
        <mxCell id="wdzL4Zp0LJ_PhM9Og0-m-353" value="Display Error" style="rounded=1;whiteSpace=wrap;html=1;" vertex="1" parent="WIyWlLk6GJQsqaUBKTNV-1">
          <mxGeometry x="1027" y="3775" width="80" height="50" as="geometry" />
        </mxCell>
        <mxCell id="wdzL4Zp0LJ_PhM9Og0-m-356" value="Pin Valid" style="rhombus;whiteSpace=wrap;html=1;" vertex="1" parent="WIyWlLk6GJQsqaUBKTNV-1">
          <mxGeometry x="784.5" y="3855" width="80" height="80" as="geometry" />
        </mxCell>
        <mxCell id="wdzL4Zp0LJ_PhM9Og0-m-357" value="" style="edgeStyle=none;orthogonalLoop=1;jettySize=auto;html=1;rounded=0;exitX=1;exitY=0.5;exitDx=0;exitDy=0;" edge="1" parent="WIyWlLk6GJQsqaUBKTNV-1" source="wdzL4Zp0LJ_PhM9Og0-m-356">
          <mxGeometry width="80" relative="1" as="geometry">
            <mxPoint x="867.5" y="3894.62" as="sourcePoint" />
            <mxPoint x="943.5" y="3935" as="targetPoint" />
            <Array as="points">
              <mxPoint x="943.5" y="3895" />
            </Array>
          </mxGeometry>
        </mxCell>
        <mxCell id="wdzL4Zp0LJ_PhM9Og0-m-358" value="" style="edgeStyle=none;orthogonalLoop=1;jettySize=auto;html=1;rounded=0;entryX=0.5;entryY=0;entryDx=0;entryDy=0;exitX=0;exitY=0.5;exitDx=0;exitDy=0;" edge="1" parent="WIyWlLk6GJQsqaUBKTNV-1" source="wdzL4Zp0LJ_PhM9Og0-m-356" target="wdzL4Zp0LJ_PhM9Og0-m-543">
          <mxGeometry width="80" relative="1" as="geometry">
            <mxPoint x="783" y="3893" as="sourcePoint" />
            <mxPoint x="703.5" y="3935" as="targetPoint" />
            <Array as="points">
              <mxPoint x="699" y="3893" />
            </Array>
          </mxGeometry>
        </mxCell>
        <mxCell id="wdzL4Zp0LJ_PhM9Og0-m-360" value="Yes" style="text;html=1;align=center;verticalAlign=middle;resizable=0;points=[];autosize=1;strokeColor=none;fillColor=none;" vertex="1" parent="WIyWlLk6GJQsqaUBKTNV-1">
          <mxGeometry x="742.5" y="3859" width="40" height="30" as="geometry" />
        </mxCell>
        <mxCell id="wdzL4Zp0LJ_PhM9Og0-m-361" value="No" style="text;html=1;align=center;verticalAlign=middle;resizable=0;points=[];autosize=1;strokeColor=none;fillColor=none;" vertex="1" parent="WIyWlLk6GJQsqaUBKTNV-1">
          <mxGeometry x="873.5" y="3863" width="40" height="30" as="geometry" />
        </mxCell>
        <mxCell id="wdzL4Zp0LJ_PhM9Og0-m-362" value="Display Error" style="rounded=1;whiteSpace=wrap;html=1;" vertex="1" parent="WIyWlLk6GJQsqaUBKTNV-1">
          <mxGeometry x="903.5" y="3935" width="80" height="50" as="geometry" />
        </mxCell>
        <mxCell id="wdzL4Zp0LJ_PhM9Og0-m-386" value="" style="ellipse;html=1;shape=endState;fillColor=#000000;strokeColor=#ff0000;" vertex="1" parent="WIyWlLk6GJQsqaUBKTNV-1">
          <mxGeometry x="2675" y="1650" width="40" height="40" as="geometry" />
        </mxCell>
        <mxCell id="wdzL4Zp0LJ_PhM9Og0-m-387" value="" style="endArrow=classic;html=1;rounded=0;entryX=0.5;entryY=0;entryDx=0;entryDy=0;exitX=0.5;exitY=1;exitDx=0;exitDy=0;" edge="1" parent="WIyWlLk6GJQsqaUBKTNV-1" target="wdzL4Zp0LJ_PhM9Og0-m-386">
          <mxGeometry width="50" height="50" relative="1" as="geometry">
            <mxPoint x="2695" y="1560" as="sourcePoint" />
            <mxPoint x="2675" y="1540" as="targetPoint" />
          </mxGeometry>
        </mxCell>
        <mxCell id="wdzL4Zp0LJ_PhM9Og0-m-419" value="" style="html=1;points=[];perimeter=orthogonalPerimeter;fillColor=strokeColor;direction=north;" vertex="1" parent="WIyWlLk6GJQsqaUBKTNV-1">
          <mxGeometry x="677" y="2933" width="1696" height="5" as="geometry" />
        </mxCell>
        <mxCell id="wdzL4Zp0LJ_PhM9Og0-m-422" value="" style="edgeStyle=none;orthogonalLoop=1;jettySize=auto;html=1;rounded=0;exitX=-0.318;exitY=0.184;exitDx=0;exitDy=0;exitPerimeter=0;entryX=0.5;entryY=0;entryDx=0;entryDy=0;" edge="1" parent="WIyWlLk6GJQsqaUBKTNV-1" source="wdzL4Zp0LJ_PhM9Og0-m-419" target="wdzL4Zp0LJ_PhM9Og0-m-246">
          <mxGeometry width="80" relative="1" as="geometry">
            <mxPoint x="1002" y="2953" as="sourcePoint" />
            <mxPoint x="1082" y="2953" as="targetPoint" />
            <Array as="points" />
          </mxGeometry>
        </mxCell>
        <mxCell id="wdzL4Zp0LJ_PhM9Og0-m-423" value="" style="endArrow=classic;html=1;rounded=0;exitX=0.689;exitY=0.839;exitDx=0;exitDy=0;exitPerimeter=0;" edge="1" parent="WIyWlLk6GJQsqaUBKTNV-1" source="wdzL4Zp0LJ_PhM9Og0-m-419">
          <mxGeometry width="50" height="50" relative="1" as="geometry">
            <mxPoint x="2100" y="2931" as="sourcePoint" />
            <mxPoint x="2100.4" y="3011" as="targetPoint" />
          </mxGeometry>
        </mxCell>
        <mxCell id="wdzL4Zp0LJ_PhM9Og0-m-424" value="Remove Bank Account" style="rounded=1;whiteSpace=wrap;html=1;" vertex="1" parent="WIyWlLk6GJQsqaUBKTNV-1">
          <mxGeometry x="2060" y="3011" width="80" height="50" as="geometry" />
        </mxCell>
        <mxCell id="wdzL4Zp0LJ_PhM9Og0-m-425" value="Send OTP" style="rounded=1;whiteSpace=wrap;html=1;" vertex="1" parent="WIyWlLk6GJQsqaUBKTNV-1">
          <mxGeometry x="1923" y="3216" width="80" height="50" as="geometry" />
        </mxCell>
        <mxCell id="wdzL4Zp0LJ_PhM9Og0-m-426" value="" style="rounded=0;orthogonalLoop=1;jettySize=auto;html=1;exitX=0.5;exitY=1;exitDx=0;exitDy=0;fontStyle=0" edge="1" parent="WIyWlLk6GJQsqaUBKTNV-1" source="wdzL4Zp0LJ_PhM9Og0-m-425">
          <mxGeometry relative="1" as="geometry">
            <mxPoint x="1962.75" y="3291" as="sourcePoint" />
            <mxPoint x="1963" y="3301" as="targetPoint" />
          </mxGeometry>
        </mxCell>
        <mxCell id="wdzL4Zp0LJ_PhM9Og0-m-427" value="" style="edgeStyle=orthogonalEdgeStyle;rounded=0;orthogonalLoop=1;jettySize=auto;html=1;" edge="1" parent="WIyWlLk6GJQsqaUBKTNV-1">
          <mxGeometry relative="1" as="geometry">
            <mxPoint x="2062.63" y="3241" as="sourcePoint" />
            <mxPoint x="2003" y="3241" as="targetPoint" />
          </mxGeometry>
        </mxCell>
        <mxCell id="wdzL4Zp0LJ_PhM9Og0-m-428" value="" style="edgeStyle=orthogonalEdgeStyle;rounded=0;orthogonalLoop=1;jettySize=auto;html=1;" edge="1" parent="WIyWlLk6GJQsqaUBKTNV-1">
          <mxGeometry relative="1" as="geometry">
            <mxPoint x="2102.81" y="3171" as="sourcePoint" />
            <mxPoint x="2103.06" y="3201" as="targetPoint" />
          </mxGeometry>
        </mxCell>
        <mxCell id="wdzL4Zp0LJ_PhM9Og0-m-429" value="Account Found" style="rhombus;whiteSpace=wrap;html=1;" vertex="1" parent="WIyWlLk6GJQsqaUBKTNV-1">
          <mxGeometry x="2063" y="3201" width="80" height="80" as="geometry" />
        </mxCell>
        <mxCell id="wdzL4Zp0LJ_PhM9Og0-m-430" value="Yes" style="text;html=1;align=center;verticalAlign=middle;resizable=0;points=[];autosize=1;strokeColor=none;fillColor=none;" vertex="1" parent="WIyWlLk6GJQsqaUBKTNV-1">
          <mxGeometry x="2023" y="3199" width="40" height="30" as="geometry" />
        </mxCell>
        <mxCell id="wdzL4Zp0LJ_PhM9Og0-m-431" value="Display Error&lt;br&gt;of Invalid Acc. Details" style="rounded=1;whiteSpace=wrap;html=1;" vertex="1" parent="WIyWlLk6GJQsqaUBKTNV-1">
          <mxGeometry x="2283" y="3216" width="80" height="50" as="geometry" />
        </mxCell>
        <mxCell id="wdzL4Zp0LJ_PhM9Og0-m-432" value="" style="edgeStyle=orthogonalEdgeStyle;rounded=0;orthogonalLoop=1;jettySize=auto;html=1;entryX=0;entryY=0.5;entryDx=0;entryDy=0;" edge="1" parent="WIyWlLk6GJQsqaUBKTNV-1" target="wdzL4Zp0LJ_PhM9Og0-m-431">
          <mxGeometry relative="1" as="geometry">
            <mxPoint x="2143.37" y="3240.5699999999997" as="sourcePoint" />
            <mxPoint x="2203" y="3240.5699999999997" as="targetPoint" />
          </mxGeometry>
        </mxCell>
        <mxCell id="wdzL4Zp0LJ_PhM9Og0-m-433" value="No" style="text;html=1;align=center;verticalAlign=middle;resizable=0;points=[];autosize=1;strokeColor=none;fillColor=none;" vertex="1" parent="WIyWlLk6GJQsqaUBKTNV-1">
          <mxGeometry x="2143" y="3199" width="40" height="30" as="geometry" />
        </mxCell>
        <mxCell id="wdzL4Zp0LJ_PhM9Og0-m-434" value="" style="edgeStyle=none;orthogonalLoop=1;jettySize=auto;html=1;rounded=0;exitX=0.5;exitY=1;exitDx=0;exitDy=0;" edge="1" parent="WIyWlLk6GJQsqaUBKTNV-1">
          <mxGeometry width="80" relative="1" as="geometry">
            <mxPoint x="2103" y="3061" as="sourcePoint" />
            <mxPoint x="2103" y="3121" as="targetPoint" />
            <Array as="points" />
          </mxGeometry>
        </mxCell>
        <mxCell id="wdzL4Zp0LJ_PhM9Og0-m-435" value="Enter Account Details" style="rounded=1;whiteSpace=wrap;html=1;" vertex="1" parent="WIyWlLk6GJQsqaUBKTNV-1">
          <mxGeometry x="2063" y="3121" width="80" height="50" as="geometry" />
        </mxCell>
        <mxCell id="wdzL4Zp0LJ_PhM9Og0-m-436" value="" style="edgeStyle=orthogonalEdgeStyle;rounded=0;orthogonalLoop=1;jettySize=auto;html=1;fontStyle=0" edge="1" parent="WIyWlLk6GJQsqaUBKTNV-1">
          <mxGeometry relative="1" as="geometry">
            <mxPoint x="1923" y="3340" as="sourcePoint" />
            <mxPoint x="1853" y="3400" as="targetPoint" />
          </mxGeometry>
        </mxCell>
        <mxCell id="wdzL4Zp0LJ_PhM9Og0-m-437" value="OTP Valid" style="rhombus;whiteSpace=wrap;html=1;fontStyle=0" vertex="1" parent="WIyWlLk6GJQsqaUBKTNV-1">
          <mxGeometry x="1923" y="3300" width="80" height="80" as="geometry" />
        </mxCell>
        <mxCell id="wdzL4Zp0LJ_PhM9Og0-m-438" value="Remove Account" style="rounded=1;whiteSpace=wrap;html=1;" vertex="1" parent="WIyWlLk6GJQsqaUBKTNV-1">
          <mxGeometry x="1813" y="3400" width="80" height="50" as="geometry" />
        </mxCell>
        <mxCell id="wdzL4Zp0LJ_PhM9Og0-m-439" value="Yes" style="text;html=1;align=center;verticalAlign=middle;resizable=0;points=[];autosize=1;strokeColor=none;fillColor=none;" vertex="1" parent="WIyWlLk6GJQsqaUBKTNV-1">
          <mxGeometry x="1878" y="3310" width="40" height="30" as="geometry" />
        </mxCell>
        <mxCell id="wdzL4Zp0LJ_PhM9Og0-m-440" value="" style="edgeStyle=orthogonalEdgeStyle;rounded=0;orthogonalLoop=1;jettySize=auto;html=1;fontStyle=0;entryX=0.5;entryY=0;entryDx=0;entryDy=0;" edge="1" parent="WIyWlLk6GJQsqaUBKTNV-1" target="wdzL4Zp0LJ_PhM9Og0-m-442">
          <mxGeometry relative="1" as="geometry">
            <mxPoint x="2003" y="3340" as="sourcePoint" />
            <mxPoint x="2063" y="3390" as="targetPoint" />
          </mxGeometry>
        </mxCell>
        <mxCell id="wdzL4Zp0LJ_PhM9Og0-m-441" value="No" style="text;html=1;align=center;verticalAlign=middle;resizable=0;points=[];autosize=1;strokeColor=none;fillColor=none;" vertex="1" parent="WIyWlLk6GJQsqaUBKTNV-1">
          <mxGeometry x="2018" y="3310" width="40" height="30" as="geometry" />
        </mxCell>
        <mxCell id="wdzL4Zp0LJ_PhM9Og0-m-442" value="OTP Verification Error" style="rounded=1;whiteSpace=wrap;html=1;" vertex="1" parent="WIyWlLk6GJQsqaUBKTNV-1">
          <mxGeometry x="2076" y="3400" width="80" height="50" as="geometry" />
        </mxCell>
        <mxCell id="wdzL4Zp0LJ_PhM9Og0-m-443" value="" style="rounded=0;orthogonalLoop=1;jettySize=auto;html=1;exitX=0.5;exitY=1;exitDx=0;exitDy=0;fontStyle=0" edge="1" parent="WIyWlLk6GJQsqaUBKTNV-1">
          <mxGeometry relative="1" as="geometry">
            <mxPoint x="1855" y="3450" as="sourcePoint" />
            <mxPoint x="1855" y="3485" as="targetPoint" />
          </mxGeometry>
        </mxCell>
        <mxCell id="wdzL4Zp0LJ_PhM9Og0-m-444" value="" style="edgeStyle=orthogonalEdgeStyle;rounded=0;orthogonalLoop=1;jettySize=auto;html=1;fontStyle=0" edge="1" parent="WIyWlLk6GJQsqaUBKTNV-1">
          <mxGeometry relative="1" as="geometry">
            <mxPoint x="1815" y="3524" as="sourcePoint" />
            <mxPoint x="1745" y="3584" as="targetPoint" />
          </mxGeometry>
        </mxCell>
        <mxCell id="wdzL4Zp0LJ_PhM9Og0-m-445" value="Account Removed" style="rhombus;whiteSpace=wrap;html=1;fontStyle=0" vertex="1" parent="WIyWlLk6GJQsqaUBKTNV-1">
          <mxGeometry x="1815" y="3484" width="80" height="80" as="geometry" />
        </mxCell>
        <mxCell id="wdzL4Zp0LJ_PhM9Og0-m-446" value="Display Success Message" style="rounded=1;whiteSpace=wrap;html=1;" vertex="1" parent="WIyWlLk6GJQsqaUBKTNV-1">
          <mxGeometry x="1705" y="3584" width="80" height="50" as="geometry" />
        </mxCell>
        <mxCell id="wdzL4Zp0LJ_PhM9Og0-m-447" value="" style="rounded=0;orthogonalLoop=1;jettySize=auto;html=1;exitX=0.5;exitY=1;exitDx=0;exitDy=0;" edge="1" parent="WIyWlLk6GJQsqaUBKTNV-1" source="wdzL4Zp0LJ_PhM9Og0-m-446">
          <mxGeometry relative="1" as="geometry">
            <mxPoint x="1767" y="3544" as="sourcePoint" />
            <mxPoint x="2040" y="3755" as="targetPoint" />
            <Array as="points">
              <mxPoint x="1746" y="3754" />
              <mxPoint x="1767" y="3755" />
              <mxPoint x="2040" y="3755" />
            </Array>
          </mxGeometry>
        </mxCell>
        <mxCell id="wdzL4Zp0LJ_PhM9Og0-m-448" value="Yes" style="text;html=1;align=center;verticalAlign=middle;resizable=0;points=[];autosize=1;strokeColor=none;fillColor=none;" vertex="1" parent="WIyWlLk6GJQsqaUBKTNV-1">
          <mxGeometry x="1770" y="3494" width="40" height="30" as="geometry" />
        </mxCell>
        <mxCell id="wdzL4Zp0LJ_PhM9Og0-m-449" value="" style="rounded=0;orthogonalLoop=1;jettySize=auto;html=1;fontStyle=0;exitX=1;exitY=0.5;exitDx=0;exitDy=0;exitPerimeter=0;" edge="1" parent="WIyWlLk6GJQsqaUBKTNV-1" source="wdzL4Zp0LJ_PhM9Og0-m-445">
          <mxGeometry relative="1" as="geometry">
            <mxPoint x="1895" y="3528.9999999999995" as="sourcePoint" />
            <mxPoint x="2053" y="3594" as="targetPoint" />
            <Array as="points">
              <mxPoint x="2053" y="3524" />
            </Array>
          </mxGeometry>
        </mxCell>
        <mxCell id="wdzL4Zp0LJ_PhM9Og0-m-450" value="No" style="text;html=1;align=center;verticalAlign=middle;resizable=0;points=[];autosize=1;strokeColor=none;fillColor=none;" vertex="1" parent="WIyWlLk6GJQsqaUBKTNV-1">
          <mxGeometry x="1910" y="3494" width="40" height="30" as="geometry" />
        </mxCell>
        <mxCell id="wdzL4Zp0LJ_PhM9Og0-m-451" value="Display Error" style="rounded=1;whiteSpace=wrap;html=1;" vertex="1" parent="WIyWlLk6GJQsqaUBKTNV-1">
          <mxGeometry x="2018" y="3595" width="80" height="50" as="geometry" />
        </mxCell>
        <mxCell id="wdzL4Zp0LJ_PhM9Og0-m-452" value="" style="ellipse;html=1;shape=endState;fillColor=#000000;strokeColor=#ff0000;" vertex="1" parent="WIyWlLk6GJQsqaUBKTNV-1">
          <mxGeometry x="2036" y="3735" width="40" height="40" as="geometry" />
        </mxCell>
        <mxCell id="wdzL4Zp0LJ_PhM9Og0-m-453" value="" style="endArrow=classic;html=1;rounded=0;entryX=0.5;entryY=0;entryDx=0;entryDy=0;exitX=0.5;exitY=1;exitDx=0;exitDy=0;" edge="1" parent="WIyWlLk6GJQsqaUBKTNV-1" target="wdzL4Zp0LJ_PhM9Og0-m-452">
          <mxGeometry width="50" height="50" relative="1" as="geometry">
            <mxPoint x="2056" y="3645" as="sourcePoint" />
            <mxPoint x="2036" y="3625" as="targetPoint" />
          </mxGeometry>
        </mxCell>
        <mxCell id="wdzL4Zp0LJ_PhM9Og0-m-454" value="" style="edgeStyle=none;orthogonalLoop=1;jettySize=auto;html=1;rounded=0;entryX=1;entryY=0;entryDx=0;entryDy=0;exitX=0.711;exitY=0.995;exitDx=0;exitDy=0;exitPerimeter=0;" edge="1" parent="WIyWlLk6GJQsqaUBKTNV-1" source="wdzL4Zp0LJ_PhM9Og0-m-442" target="wdzL4Zp0LJ_PhM9Og0-m-452">
          <mxGeometry width="80" relative="1" as="geometry">
            <mxPoint x="2133" y="3453" as="sourcePoint" />
            <mxPoint x="2423" y="3643" as="targetPoint" />
            <Array as="points">
              <mxPoint x="2133" y="3741" />
            </Array>
          </mxGeometry>
        </mxCell>
        <mxCell id="wdzL4Zp0LJ_PhM9Og0-m-455" value="" style="edgeStyle=none;orthogonalLoop=1;jettySize=auto;html=1;rounded=0;entryX=1.028;entryY=0.749;entryDx=0;entryDy=0;exitX=0.711;exitY=0.995;exitDx=0;exitDy=0;exitPerimeter=0;entryPerimeter=0;" edge="1" parent="WIyWlLk6GJQsqaUBKTNV-1" target="wdzL4Zp0LJ_PhM9Og0-m-452">
          <mxGeometry width="80" relative="1" as="geometry">
            <mxPoint x="2326" y="3267" as="sourcePoint" />
            <mxPoint x="2263" y="3558" as="targetPoint" />
            <Array as="points">
              <mxPoint x="2323" y="3763" />
            </Array>
          </mxGeometry>
        </mxCell>
        <mxCell id="wdzL4Zp0LJ_PhM9Og0-m-456" value="" style="edgeStyle=none;orthogonalLoop=1;jettySize=auto;html=1;rounded=0;entryX=1;entryY=0;entryDx=0;entryDy=0;exitX=0.711;exitY=0.995;exitDx=0;exitDy=0;exitPerimeter=0;" edge="1" parent="WIyWlLk6GJQsqaUBKTNV-1">
          <mxGeometry width="80" relative="1" as="geometry">
            <mxPoint x="1107" y="2513" as="sourcePoint" />
            <mxPoint x="1044" y="2804" as="targetPoint" />
            <Array as="points">
              <mxPoint x="1107" y="2806" />
            </Array>
          </mxGeometry>
        </mxCell>
        <mxCell id="wdzL4Zp0LJ_PhM9Og0-m-458" value="" style="edgeStyle=none;orthogonalLoop=1;jettySize=auto;html=1;rounded=0;entryX=1;entryY=1;entryDx=0;entryDy=0;exitX=0.711;exitY=0.995;exitDx=0;exitDy=0;exitPerimeter=0;" edge="1" parent="WIyWlLk6GJQsqaUBKTNV-1" target="wdzL4Zp0LJ_PhM9Og0-m-241">
          <mxGeometry width="80" relative="1" as="geometry">
            <mxPoint x="1236" y="2316" as="sourcePoint" />
            <mxPoint x="1173" y="2607" as="targetPoint" />
            <Array as="points">
              <mxPoint x="1233" y="2819" />
            </Array>
          </mxGeometry>
        </mxCell>
        <mxCell id="wdzL4Zp0LJ_PhM9Og0-m-459" value="" style="html=1;points=[];perimeter=orthogonalPerimeter;fillColor=strokeColor;direction=south;" vertex="1" parent="WIyWlLk6GJQsqaUBKTNV-1">
          <mxGeometry x="2785" y="900" width="80" height="5" as="geometry" />
        </mxCell>
        <mxCell id="wdzL4Zp0LJ_PhM9Og0-m-460" value="" style="endArrow=classic;html=1;rounded=0;exitX=0.5;exitY=1;exitDx=0;exitDy=0;" edge="1" parent="WIyWlLk6GJQsqaUBKTNV-1">
          <mxGeometry width="50" height="50" relative="1" as="geometry">
            <mxPoint x="1620" y="1984" as="sourcePoint" />
            <mxPoint x="1620.4" y="2064" as="targetPoint" />
          </mxGeometry>
        </mxCell>
        <mxCell id="wdzL4Zp0LJ_PhM9Og0-m-461" value="Check Bank Balance" style="rounded=1;whiteSpace=wrap;html=1;" vertex="1" parent="WIyWlLk6GJQsqaUBKTNV-1">
          <mxGeometry x="1580" y="2064" width="80" height="50" as="geometry" />
        </mxCell>
        <mxCell id="wdzL4Zp0LJ_PhM9Og0-m-462" value="display Balance" style="rounded=1;whiteSpace=wrap;html=1;" vertex="1" parent="WIyWlLk6GJQsqaUBKTNV-1">
          <mxGeometry x="1443" y="2159" width="80" height="50" as="geometry" />
        </mxCell>
        <mxCell id="wdzL4Zp0LJ_PhM9Og0-m-464" value="" style="edgeStyle=orthogonalEdgeStyle;rounded=0;orthogonalLoop=1;jettySize=auto;html=1;" edge="1" parent="WIyWlLk6GJQsqaUBKTNV-1">
          <mxGeometry relative="1" as="geometry">
            <mxPoint x="1582.63" y="2184" as="sourcePoint" />
            <mxPoint x="1523" y="2184" as="targetPoint" />
          </mxGeometry>
        </mxCell>
        <mxCell id="wdzL4Zp0LJ_PhM9Og0-m-465" value="" style="edgeStyle=orthogonalEdgeStyle;rounded=0;orthogonalLoop=1;jettySize=auto;html=1;" edge="1" parent="WIyWlLk6GJQsqaUBKTNV-1">
          <mxGeometry relative="1" as="geometry">
            <mxPoint x="1622.81" y="2114" as="sourcePoint" />
            <mxPoint x="1623.06" y="2144" as="targetPoint" />
          </mxGeometry>
        </mxCell>
        <mxCell id="wdzL4Zp0LJ_PhM9Og0-m-466" value="Balance Available" style="rhombus;whiteSpace=wrap;html=1;" vertex="1" parent="WIyWlLk6GJQsqaUBKTNV-1">
          <mxGeometry x="1583" y="2144" width="80" height="80" as="geometry" />
        </mxCell>
        <mxCell id="wdzL4Zp0LJ_PhM9Og0-m-467" value="Yes" style="text;html=1;align=center;verticalAlign=middle;resizable=0;points=[];autosize=1;strokeColor=none;fillColor=none;" vertex="1" parent="WIyWlLk6GJQsqaUBKTNV-1">
          <mxGeometry x="1543" y="2142" width="40" height="30" as="geometry" />
        </mxCell>
        <mxCell id="wdzL4Zp0LJ_PhM9Og0-m-468" value="Display Balance Error" style="rounded=1;whiteSpace=wrap;html=1;" vertex="1" parent="WIyWlLk6GJQsqaUBKTNV-1">
          <mxGeometry x="1743" y="2159" width="80" height="50" as="geometry" />
        </mxCell>
        <mxCell id="wdzL4Zp0LJ_PhM9Og0-m-469" value="" style="edgeStyle=orthogonalEdgeStyle;rounded=0;orthogonalLoop=1;jettySize=auto;html=1;entryX=0;entryY=0.5;entryDx=0;entryDy=0;" edge="1" parent="WIyWlLk6GJQsqaUBKTNV-1" target="wdzL4Zp0LJ_PhM9Og0-m-468">
          <mxGeometry relative="1" as="geometry">
            <mxPoint x="1663.37" y="2183.5699999999997" as="sourcePoint" />
            <mxPoint x="1723" y="2183.5699999999997" as="targetPoint" />
          </mxGeometry>
        </mxCell>
        <mxCell id="wdzL4Zp0LJ_PhM9Og0-m-470" value="No" style="text;html=1;align=center;verticalAlign=middle;resizable=0;points=[];autosize=1;strokeColor=none;fillColor=none;" vertex="1" parent="WIyWlLk6GJQsqaUBKTNV-1">
          <mxGeometry x="1663" y="2142" width="40" height="30" as="geometry" />
        </mxCell>
        <mxCell id="wdzL4Zp0LJ_PhM9Og0-m-481" value="" style="ellipse;html=1;shape=endState;fillColor=#000000;strokeColor=#ff0000;" vertex="1" parent="WIyWlLk6GJQsqaUBKTNV-1">
          <mxGeometry x="1607" y="2320" width="40" height="40" as="geometry" />
        </mxCell>
        <mxCell id="wdzL4Zp0LJ_PhM9Og0-m-482" value="" style="edgeStyle=none;orthogonalLoop=1;jettySize=auto;html=1;rounded=0;exitX=0.5;exitY=1;exitDx=0;exitDy=0;entryX=0;entryY=0.5;entryDx=0;entryDy=0;" edge="1" parent="WIyWlLk6GJQsqaUBKTNV-1" source="wdzL4Zp0LJ_PhM9Og0-m-462" target="wdzL4Zp0LJ_PhM9Og0-m-481">
          <mxGeometry width="80" relative="1" as="geometry">
            <mxPoint x="1493" y="2263" as="sourcePoint" />
            <mxPoint x="1573" y="2263" as="targetPoint" />
            <Array as="points">
              <mxPoint x="1483" y="2340" />
            </Array>
          </mxGeometry>
        </mxCell>
        <mxCell id="wdzL4Zp0LJ_PhM9Og0-m-484" value="" style="edgeStyle=none;orthogonalLoop=1;jettySize=auto;html=1;rounded=0;exitX=0.5;exitY=1;exitDx=0;exitDy=0;entryX=1;entryY=0.5;entryDx=0;entryDy=0;" edge="1" parent="WIyWlLk6GJQsqaUBKTNV-1" source="wdzL4Zp0LJ_PhM9Og0-m-468" target="wdzL4Zp0LJ_PhM9Og0-m-481">
          <mxGeometry width="80" relative="1" as="geometry">
            <mxPoint x="1683" y="2293" as="sourcePoint" />
            <mxPoint x="1763" y="2293" as="targetPoint" />
            <Array as="points">
              <mxPoint x="1783" y="2340" />
            </Array>
          </mxGeometry>
        </mxCell>
        <mxCell id="wdzL4Zp0LJ_PhM9Og0-m-485" value="" style="endArrow=classic;html=1;rounded=0;exitX=0.5;exitY=1;exitDx=0;exitDy=0;" edge="1" parent="WIyWlLk6GJQsqaUBKTNV-1">
          <mxGeometry width="50" height="50" relative="1" as="geometry">
            <mxPoint x="2025" y="1980" as="sourcePoint" />
            <mxPoint x="2025.4" y="2060" as="targetPoint" />
          </mxGeometry>
        </mxCell>
        <mxCell id="wdzL4Zp0LJ_PhM9Og0-m-486" value="Download Transaction History" style="rounded=1;whiteSpace=wrap;html=1;" vertex="1" parent="WIyWlLk6GJQsqaUBKTNV-1">
          <mxGeometry x="1985" y="2060" width="80" height="50" as="geometry" />
        </mxCell>
        <mxCell id="wdzL4Zp0LJ_PhM9Og0-m-487" value="Download History File" style="rounded=1;whiteSpace=wrap;html=1;" vertex="1" parent="WIyWlLk6GJQsqaUBKTNV-1">
          <mxGeometry x="1848" y="2155" width="80" height="50" as="geometry" />
        </mxCell>
        <mxCell id="wdzL4Zp0LJ_PhM9Og0-m-488" value="" style="edgeStyle=orthogonalEdgeStyle;rounded=0;orthogonalLoop=1;jettySize=auto;html=1;" edge="1" parent="WIyWlLk6GJQsqaUBKTNV-1">
          <mxGeometry relative="1" as="geometry">
            <mxPoint x="1987.63" y="2180" as="sourcePoint" />
            <mxPoint x="1928" y="2180" as="targetPoint" />
          </mxGeometry>
        </mxCell>
        <mxCell id="wdzL4Zp0LJ_PhM9Og0-m-489" value="" style="edgeStyle=orthogonalEdgeStyle;rounded=0;orthogonalLoop=1;jettySize=auto;html=1;" edge="1" parent="WIyWlLk6GJQsqaUBKTNV-1">
          <mxGeometry relative="1" as="geometry">
            <mxPoint x="2027.81" y="2110" as="sourcePoint" />
            <mxPoint x="2028.06" y="2140" as="targetPoint" />
          </mxGeometry>
        </mxCell>
        <mxCell id="wdzL4Zp0LJ_PhM9Og0-m-490" value="History Available" style="rhombus;whiteSpace=wrap;html=1;" vertex="1" parent="WIyWlLk6GJQsqaUBKTNV-1">
          <mxGeometry x="1988" y="2140" width="80" height="80" as="geometry" />
        </mxCell>
        <mxCell id="wdzL4Zp0LJ_PhM9Og0-m-491" value="Yes" style="text;html=1;align=center;verticalAlign=middle;resizable=0;points=[];autosize=1;strokeColor=none;fillColor=none;" vertex="1" parent="WIyWlLk6GJQsqaUBKTNV-1">
          <mxGeometry x="1948" y="2138" width="40" height="30" as="geometry" />
        </mxCell>
        <mxCell id="wdzL4Zp0LJ_PhM9Og0-m-492" value="Display Error" style="rounded=1;whiteSpace=wrap;html=1;" vertex="1" parent="WIyWlLk6GJQsqaUBKTNV-1">
          <mxGeometry x="2148" y="2155" width="80" height="50" as="geometry" />
        </mxCell>
        <mxCell id="wdzL4Zp0LJ_PhM9Og0-m-493" value="" style="edgeStyle=orthogonalEdgeStyle;rounded=0;orthogonalLoop=1;jettySize=auto;html=1;entryX=0;entryY=0.5;entryDx=0;entryDy=0;" edge="1" parent="WIyWlLk6GJQsqaUBKTNV-1" target="wdzL4Zp0LJ_PhM9Og0-m-492">
          <mxGeometry relative="1" as="geometry">
            <mxPoint x="2068.37" y="2179.5699999999997" as="sourcePoint" />
            <mxPoint x="2128" y="2179.5699999999997" as="targetPoint" />
          </mxGeometry>
        </mxCell>
        <mxCell id="wdzL4Zp0LJ_PhM9Og0-m-494" value="No" style="text;html=1;align=center;verticalAlign=middle;resizable=0;points=[];autosize=1;strokeColor=none;fillColor=none;" vertex="1" parent="WIyWlLk6GJQsqaUBKTNV-1">
          <mxGeometry x="2068" y="2138" width="40" height="30" as="geometry" />
        </mxCell>
        <mxCell id="wdzL4Zp0LJ_PhM9Og0-m-495" value="" style="ellipse;html=1;shape=endState;fillColor=#000000;strokeColor=#ff0000;" vertex="1" parent="WIyWlLk6GJQsqaUBKTNV-1">
          <mxGeometry x="2012" y="2316" width="40" height="40" as="geometry" />
        </mxCell>
        <mxCell id="wdzL4Zp0LJ_PhM9Og0-m-496" value="" style="edgeStyle=none;orthogonalLoop=1;jettySize=auto;html=1;rounded=0;exitX=0.5;exitY=1;exitDx=0;exitDy=0;entryX=0;entryY=0.5;entryDx=0;entryDy=0;" edge="1" parent="WIyWlLk6GJQsqaUBKTNV-1" source="wdzL4Zp0LJ_PhM9Og0-m-487" target="wdzL4Zp0LJ_PhM9Og0-m-495">
          <mxGeometry width="80" relative="1" as="geometry">
            <mxPoint x="1898" y="2259" as="sourcePoint" />
            <mxPoint x="1978" y="2259" as="targetPoint" />
            <Array as="points">
              <mxPoint x="1888" y="2336" />
            </Array>
          </mxGeometry>
        </mxCell>
        <mxCell id="wdzL4Zp0LJ_PhM9Og0-m-497" value="" style="edgeStyle=none;orthogonalLoop=1;jettySize=auto;html=1;rounded=0;exitX=0.5;exitY=1;exitDx=0;exitDy=0;entryX=1;entryY=0.5;entryDx=0;entryDy=0;" edge="1" parent="WIyWlLk6GJQsqaUBKTNV-1" source="wdzL4Zp0LJ_PhM9Og0-m-492" target="wdzL4Zp0LJ_PhM9Og0-m-495">
          <mxGeometry width="80" relative="1" as="geometry">
            <mxPoint x="2088" y="2289" as="sourcePoint" />
            <mxPoint x="2168" y="2289" as="targetPoint" />
            <Array as="points">
              <mxPoint x="2188" y="2336" />
            </Array>
          </mxGeometry>
        </mxCell>
        <mxCell id="wdzL4Zp0LJ_PhM9Og0-m-498" value="" style="endArrow=classic;html=1;rounded=0;exitX=0.5;exitY=1;exitDx=0;exitDy=0;" edge="1" parent="WIyWlLk6GJQsqaUBKTNV-1">
          <mxGeometry width="50" height="50" relative="1" as="geometry">
            <mxPoint x="2415" y="1984" as="sourcePoint" />
            <mxPoint x="2415" y="2033" as="targetPoint" />
          </mxGeometry>
        </mxCell>
        <mxCell id="wdzL4Zp0LJ_PhM9Og0-m-499" value="Update Profile" style="rounded=1;whiteSpace=wrap;html=1;" vertex="1" parent="WIyWlLk6GJQsqaUBKTNV-1">
          <mxGeometry x="2378" y="2033" width="80" height="50" as="geometry" />
        </mxCell>
        <mxCell id="wdzL4Zp0LJ_PhM9Og0-m-502" value="" style="edgeStyle=orthogonalEdgeStyle;rounded=0;orthogonalLoop=1;jettySize=auto;html=1;" edge="1" parent="WIyWlLk6GJQsqaUBKTNV-1">
          <mxGeometry relative="1" as="geometry">
            <mxPoint x="2414.81" y="2182" as="sourcePoint" />
            <mxPoint x="2415.06" y="2212" as="targetPoint" />
          </mxGeometry>
        </mxCell>
        <mxCell id="wdzL4Zp0LJ_PhM9Og0-m-503" value="Details Valid" style="rhombus;whiteSpace=wrap;html=1;" vertex="1" parent="WIyWlLk6GJQsqaUBKTNV-1">
          <mxGeometry x="2375" y="2212" width="80" height="80" as="geometry" />
        </mxCell>
        <mxCell id="wdzL4Zp0LJ_PhM9Og0-m-504" value="Yes" style="text;html=1;align=center;verticalAlign=middle;resizable=0;points=[];autosize=1;strokeColor=none;fillColor=none;" vertex="1" parent="WIyWlLk6GJQsqaUBKTNV-1">
          <mxGeometry x="2335" y="2210" width="40" height="30" as="geometry" />
        </mxCell>
        <mxCell id="wdzL4Zp0LJ_PhM9Og0-m-505" value="Display Invalid Details Error" style="rounded=1;whiteSpace=wrap;html=1;" vertex="1" parent="WIyWlLk6GJQsqaUBKTNV-1">
          <mxGeometry x="2535" y="2227" width="80" height="50" as="geometry" />
        </mxCell>
        <mxCell id="wdzL4Zp0LJ_PhM9Og0-m-506" value="" style="edgeStyle=orthogonalEdgeStyle;rounded=0;orthogonalLoop=1;jettySize=auto;html=1;entryX=0;entryY=0.5;entryDx=0;entryDy=0;" edge="1" parent="WIyWlLk6GJQsqaUBKTNV-1" target="wdzL4Zp0LJ_PhM9Og0-m-505">
          <mxGeometry relative="1" as="geometry">
            <mxPoint x="2455.37" y="2251.5699999999997" as="sourcePoint" />
            <mxPoint x="2515" y="2251.5699999999997" as="targetPoint" />
          </mxGeometry>
        </mxCell>
        <mxCell id="wdzL4Zp0LJ_PhM9Og0-m-507" value="No" style="text;html=1;align=center;verticalAlign=middle;resizable=0;points=[];autosize=1;strokeColor=none;fillColor=none;" vertex="1" parent="WIyWlLk6GJQsqaUBKTNV-1">
          <mxGeometry x="2455" y="2210" width="40" height="30" as="geometry" />
        </mxCell>
        <mxCell id="wdzL4Zp0LJ_PhM9Og0-m-509" value="" style="edgeStyle=orthogonalEdgeStyle;orthogonalLoop=1;jettySize=auto;html=1;rounded=0;entryX=0.5;entryY=0;entryDx=0;entryDy=0;" edge="1" parent="WIyWlLk6GJQsqaUBKTNV-1" target="wdzL4Zp0LJ_PhM9Og0-m-525">
          <mxGeometry width="80" relative="1" as="geometry">
            <mxPoint x="2373" y="2253" as="sourcePoint" />
            <mxPoint x="2365" y="2331" as="targetPoint" />
            <Array as="points">
              <mxPoint x="2275" y="2371" />
              <mxPoint x="2198" y="2371" />
            </Array>
          </mxGeometry>
        </mxCell>
        <mxCell id="wdzL4Zp0LJ_PhM9Og0-m-510" value="" style="orthogonalLoop=1;jettySize=auto;html=1;rounded=0;exitX=0.5;exitY=1;exitDx=0;exitDy=0;entryX=0.688;entryY=0.964;entryDx=0;entryDy=0;entryPerimeter=0;" edge="1" parent="WIyWlLk6GJQsqaUBKTNV-1" source="wdzL4Zp0LJ_PhM9Og0-m-505" target="wdzL4Zp0LJ_PhM9Og0-m-530">
          <mxGeometry width="80" relative="1" as="geometry">
            <mxPoint x="2475" y="2361" as="sourcePoint" />
            <mxPoint x="2577.9999999999695" y="2505" as="targetPoint" />
            <Array as="points">
              <mxPoint x="2573" y="2683" />
            </Array>
          </mxGeometry>
        </mxCell>
        <mxCell id="wdzL4Zp0LJ_PhM9Og0-m-511" value="" style="endArrow=classic;html=1;rounded=0;exitX=0.5;exitY=1;exitDx=0;exitDy=0;" edge="1" parent="WIyWlLk6GJQsqaUBKTNV-1">
          <mxGeometry width="50" height="50" relative="1" as="geometry">
            <mxPoint x="2415" y="2083" as="sourcePoint" />
            <mxPoint x="2415" y="2132" as="targetPoint" />
          </mxGeometry>
        </mxCell>
        <mxCell id="wdzL4Zp0LJ_PhM9Og0-m-512" value="Enter Details" style="rounded=1;whiteSpace=wrap;html=1;" vertex="1" parent="WIyWlLk6GJQsqaUBKTNV-1">
          <mxGeometry x="2378" y="2132" width="80" height="50" as="geometry" />
        </mxCell>
        <mxCell id="wdzL4Zp0LJ_PhM9Og0-m-523" value="Display Updated Profile" style="rounded=1;whiteSpace=wrap;html=1;" vertex="1" parent="WIyWlLk6GJQsqaUBKTNV-1">
          <mxGeometry x="2018" y="2480" width="80" height="50" as="geometry" />
        </mxCell>
        <mxCell id="wdzL4Zp0LJ_PhM9Og0-m-524" value="" style="edgeStyle=orthogonalEdgeStyle;rounded=0;orthogonalLoop=1;jettySize=auto;html=1;" edge="1" parent="WIyWlLk6GJQsqaUBKTNV-1">
          <mxGeometry relative="1" as="geometry">
            <mxPoint x="2157.63" y="2505" as="sourcePoint" />
            <mxPoint x="2098" y="2505" as="targetPoint" />
          </mxGeometry>
        </mxCell>
        <mxCell id="wdzL4Zp0LJ_PhM9Og0-m-525" value="Profile Upadate" style="rhombus;whiteSpace=wrap;html=1;" vertex="1" parent="WIyWlLk6GJQsqaUBKTNV-1">
          <mxGeometry x="2158" y="2465" width="80" height="80" as="geometry" />
        </mxCell>
        <mxCell id="wdzL4Zp0LJ_PhM9Og0-m-526" value="Yes" style="text;html=1;align=center;verticalAlign=middle;resizable=0;points=[];autosize=1;strokeColor=none;fillColor=none;" vertex="1" parent="WIyWlLk6GJQsqaUBKTNV-1">
          <mxGeometry x="2118" y="2463" width="40" height="30" as="geometry" />
        </mxCell>
        <mxCell id="wdzL4Zp0LJ_PhM9Og0-m-527" value="Display Update Error" style="rounded=1;whiteSpace=wrap;html=1;" vertex="1" parent="WIyWlLk6GJQsqaUBKTNV-1">
          <mxGeometry x="2318" y="2480" width="80" height="50" as="geometry" />
        </mxCell>
        <mxCell id="wdzL4Zp0LJ_PhM9Og0-m-528" value="" style="edgeStyle=orthogonalEdgeStyle;rounded=0;orthogonalLoop=1;jettySize=auto;html=1;entryX=0;entryY=0.5;entryDx=0;entryDy=0;" edge="1" parent="WIyWlLk6GJQsqaUBKTNV-1" target="wdzL4Zp0LJ_PhM9Og0-m-527">
          <mxGeometry relative="1" as="geometry">
            <mxPoint x="2238.37" y="2504.5699999999997" as="sourcePoint" />
            <mxPoint x="2298" y="2504.5699999999997" as="targetPoint" />
          </mxGeometry>
        </mxCell>
        <mxCell id="wdzL4Zp0LJ_PhM9Og0-m-529" value="No" style="text;html=1;align=center;verticalAlign=middle;resizable=0;points=[];autosize=1;strokeColor=none;fillColor=none;" vertex="1" parent="WIyWlLk6GJQsqaUBKTNV-1">
          <mxGeometry x="2238" y="2463" width="40" height="30" as="geometry" />
        </mxCell>
        <mxCell id="wdzL4Zp0LJ_PhM9Og0-m-530" value="" style="ellipse;html=1;shape=endState;fillColor=#000000;strokeColor=#ff0000;" vertex="1" parent="WIyWlLk6GJQsqaUBKTNV-1">
          <mxGeometry x="2182" y="2641" width="40" height="40" as="geometry" />
        </mxCell>
        <mxCell id="wdzL4Zp0LJ_PhM9Og0-m-531" value="" style="edgeStyle=none;orthogonalLoop=1;jettySize=auto;html=1;rounded=0;exitX=0.5;exitY=1;exitDx=0;exitDy=0;entryX=0;entryY=0.5;entryDx=0;entryDy=0;" edge="1" parent="WIyWlLk6GJQsqaUBKTNV-1" source="wdzL4Zp0LJ_PhM9Og0-m-523" target="wdzL4Zp0LJ_PhM9Og0-m-530">
          <mxGeometry width="80" relative="1" as="geometry">
            <mxPoint x="2068" y="2584" as="sourcePoint" />
            <mxPoint x="2148" y="2584" as="targetPoint" />
            <Array as="points">
              <mxPoint x="2058" y="2661" />
            </Array>
          </mxGeometry>
        </mxCell>
        <mxCell id="wdzL4Zp0LJ_PhM9Og0-m-532" value="" style="edgeStyle=none;orthogonalLoop=1;jettySize=auto;html=1;rounded=0;exitX=0.5;exitY=1;exitDx=0;exitDy=0;entryX=1;entryY=0.5;entryDx=0;entryDy=0;" edge="1" parent="WIyWlLk6GJQsqaUBKTNV-1" source="wdzL4Zp0LJ_PhM9Og0-m-527" target="wdzL4Zp0LJ_PhM9Og0-m-530">
          <mxGeometry width="80" relative="1" as="geometry">
            <mxPoint x="2258" y="2614" as="sourcePoint" />
            <mxPoint x="2338" y="2614" as="targetPoint" />
            <Array as="points">
              <mxPoint x="2358" y="2661" />
            </Array>
          </mxGeometry>
        </mxCell>
        <mxCell id="wdzL4Zp0LJ_PhM9Og0-m-534" value="Reedem Bonus" style="rounded=1;whiteSpace=wrap;html=1;" vertex="1" parent="WIyWlLk6GJQsqaUBKTNV-1">
          <mxGeometry x="536" y="4053" width="80" height="50" as="geometry" />
        </mxCell>
        <mxCell id="wdzL4Zp0LJ_PhM9Og0-m-535" value="" style="edgeStyle=orthogonalEdgeStyle;rounded=0;orthogonalLoop=1;jettySize=auto;html=1;" edge="1" parent="WIyWlLk6GJQsqaUBKTNV-1" target="wdzL4Zp0LJ_PhM9Og0-m-536">
          <mxGeometry relative="1" as="geometry">
            <mxPoint x="577.5" y="4103" as="sourcePoint" />
          </mxGeometry>
        </mxCell>
        <mxCell id="wdzL4Zp0LJ_PhM9Og0-m-536" value="&lt;font style=&quot;font-size: 9px;&quot;&gt;Bonus Criteria Valid&lt;/font&gt;" style="rhombus;whiteSpace=wrap;html=1;" vertex="1" parent="WIyWlLk6GJQsqaUBKTNV-1">
          <mxGeometry x="538" y="4133" width="80" height="80" as="geometry" />
        </mxCell>
        <mxCell id="wdzL4Zp0LJ_PhM9Og0-m-537" value="" style="edgeStyle=none;orthogonalLoop=1;jettySize=auto;html=1;rounded=0;" edge="1" parent="WIyWlLk6GJQsqaUBKTNV-1">
          <mxGeometry width="80" relative="1" as="geometry">
            <mxPoint x="621" y="4172.62" as="sourcePoint" />
            <mxPoint x="697" y="4213" as="targetPoint" />
            <Array as="points">
              <mxPoint x="697" y="4173" />
            </Array>
          </mxGeometry>
        </mxCell>
        <mxCell id="wdzL4Zp0LJ_PhM9Og0-m-538" value="" style="edgeStyle=none;orthogonalLoop=1;jettySize=auto;html=1;rounded=0;" edge="1" parent="WIyWlLk6GJQsqaUBKTNV-1">
          <mxGeometry width="80" relative="1" as="geometry">
            <mxPoint x="541" y="4172.62" as="sourcePoint" />
            <mxPoint x="457" y="4213" as="targetPoint" />
            <Array as="points">
              <mxPoint x="457" y="4173" />
            </Array>
          </mxGeometry>
        </mxCell>
        <mxCell id="wdzL4Zp0LJ_PhM9Og0-m-539" value="Proceed To Payment" style="rounded=1;whiteSpace=wrap;html=1;" vertex="1" parent="WIyWlLk6GJQsqaUBKTNV-1">
          <mxGeometry x="414" y="4213" width="80" height="50" as="geometry" />
        </mxCell>
        <mxCell id="wdzL4Zp0LJ_PhM9Og0-m-540" value="Yes" style="text;html=1;align=center;verticalAlign=middle;resizable=0;points=[];autosize=1;strokeColor=none;fillColor=none;" vertex="1" parent="WIyWlLk6GJQsqaUBKTNV-1">
          <mxGeometry x="496" y="4137" width="40" height="30" as="geometry" />
        </mxCell>
        <mxCell id="wdzL4Zp0LJ_PhM9Og0-m-541" value="No" style="text;html=1;align=center;verticalAlign=middle;resizable=0;points=[];autosize=1;strokeColor=none;fillColor=none;" vertex="1" parent="WIyWlLk6GJQsqaUBKTNV-1">
          <mxGeometry x="627" y="4141" width="40" height="30" as="geometry" />
        </mxCell>
        <mxCell id="wdzL4Zp0LJ_PhM9Og0-m-542" value="Display Error" style="rounded=1;whiteSpace=wrap;html=1;" vertex="1" parent="WIyWlLk6GJQsqaUBKTNV-1">
          <mxGeometry x="657" y="4213" width="80" height="50" as="geometry" />
        </mxCell>
        <mxCell id="wdzL4Zp0LJ_PhM9Og0-m-543" value="Want To Reedem Bonus" style="rhombus;whiteSpace=wrap;html=1;" vertex="1" parent="WIyWlLk6GJQsqaUBKTNV-1">
          <mxGeometry x="659" y="4003" width="80" height="80" as="geometry" />
        </mxCell>
        <mxCell id="wdzL4Zp0LJ_PhM9Og0-m-544" value="" style="edgeStyle=none;orthogonalLoop=1;jettySize=auto;html=1;rounded=0;exitX=0;exitY=0.5;exitDx=0;exitDy=0;entryX=0.5;entryY=0;entryDx=0;entryDy=0;" edge="1" parent="WIyWlLk6GJQsqaUBKTNV-1" source="wdzL4Zp0LJ_PhM9Og0-m-543" target="wdzL4Zp0LJ_PhM9Og0-m-534">
          <mxGeometry width="80" relative="1" as="geometry">
            <mxPoint x="576" y="4033" as="sourcePoint" />
            <mxPoint x="730" y="4033" as="targetPoint" />
            <Array as="points">
              <mxPoint x="576" y="4043" />
            </Array>
          </mxGeometry>
        </mxCell>
        <mxCell id="wdzL4Zp0LJ_PhM9Og0-m-547" value="Yes" style="text;html=1;align=center;verticalAlign=middle;resizable=0;points=[];autosize=1;strokeColor=none;fillColor=none;" vertex="1" parent="WIyWlLk6GJQsqaUBKTNV-1">
          <mxGeometry x="603" y="4001" width="40" height="30" as="geometry" />
        </mxCell>
        <mxCell id="wdzL4Zp0LJ_PhM9Og0-m-548" value="" style="edgeStyle=none;orthogonalLoop=1;jettySize=auto;html=1;rounded=0;entryX=1;entryY=0.5;entryDx=0;entryDy=0;exitX=0.5;exitY=1;exitDx=0;exitDy=0;" edge="1" parent="WIyWlLk6GJQsqaUBKTNV-1" source="wdzL4Zp0LJ_PhM9Og0-m-362" target="wdzL4Zp0LJ_PhM9Og0-m-550">
          <mxGeometry width="80" relative="1" as="geometry">
            <mxPoint x="993" y="4023" as="sourcePoint" />
            <mxPoint x="733" y="4353" as="targetPoint" />
            <Array as="points">
              <mxPoint x="943" y="4333" />
            </Array>
          </mxGeometry>
        </mxCell>
        <mxCell id="wdzL4Zp0LJ_PhM9Og0-m-549" value="" style="edgeStyle=none;orthogonalLoop=1;jettySize=auto;html=1;rounded=0;exitX=0.5;exitY=1;exitDx=0;exitDy=0;" edge="1" parent="WIyWlLk6GJQsqaUBKTNV-1" source="wdzL4Zp0LJ_PhM9Og0-m-542" target="wdzL4Zp0LJ_PhM9Og0-m-550">
          <mxGeometry width="80" relative="1" as="geometry">
            <mxPoint x="823" y="4383" as="sourcePoint" />
            <mxPoint x="697" y="4313" as="targetPoint" />
            <Array as="points" />
          </mxGeometry>
        </mxCell>
        <mxCell id="wdzL4Zp0LJ_PhM9Og0-m-550" value="" style="ellipse;html=1;shape=endState;fillColor=#000000;strokeColor=#ff0000;" vertex="1" parent="WIyWlLk6GJQsqaUBKTNV-1">
          <mxGeometry x="679" y="4313" width="40" height="40" as="geometry" />
        </mxCell>
        <mxCell id="wdzL4Zp0LJ_PhM9Og0-m-551" value="" style="edgeStyle=none;orthogonalLoop=1;jettySize=auto;html=1;rounded=0;entryX=1;entryY=1;entryDx=0;entryDy=0;exitX=0.5;exitY=1;exitDx=0;exitDy=0;" edge="1" parent="WIyWlLk6GJQsqaUBKTNV-1" target="wdzL4Zp0LJ_PhM9Og0-m-550">
          <mxGeometry width="80" relative="1" as="geometry">
            <mxPoint x="1072" y="3825" as="sourcePoint" />
            <mxPoint x="847" y="4173" as="targetPoint" />
            <Array as="points">
              <mxPoint x="1073" y="4353" />
            </Array>
          </mxGeometry>
        </mxCell>
        <mxCell id="wdzL4Zp0LJ_PhM9Og0-m-553" value="" style="endArrow=classic;html=1;rounded=0;exitX=0.5;exitY=1;exitDx=0;exitDy=0;" edge="1" parent="WIyWlLk6GJQsqaUBKTNV-1">
          <mxGeometry width="50" height="50" relative="1" as="geometry">
            <mxPoint x="581.5" y="1984" as="sourcePoint" />
            <mxPoint x="581.9000000000001" y="2064" as="targetPoint" />
          </mxGeometry>
        </mxCell>
        <mxCell id="wdzL4Zp0LJ_PhM9Og0-m-554" value="Submit Feedback" style="rounded=1;whiteSpace=wrap;html=1;" vertex="1" parent="WIyWlLk6GJQsqaUBKTNV-1">
          <mxGeometry x="541.5" y="2064" width="80" height="50" as="geometry" />
        </mxCell>
        <mxCell id="wdzL4Zp0LJ_PhM9Og0-m-555" value="Display confirmation&lt;br&gt;Message" style="rounded=1;whiteSpace=wrap;html=1;" vertex="1" parent="WIyWlLk6GJQsqaUBKTNV-1">
          <mxGeometry x="404.5" y="2159" width="80" height="50" as="geometry" />
        </mxCell>
        <mxCell id="wdzL4Zp0LJ_PhM9Og0-m-556" value="" style="edgeStyle=orthogonalEdgeStyle;rounded=0;orthogonalLoop=1;jettySize=auto;html=1;" edge="1" parent="WIyWlLk6GJQsqaUBKTNV-1">
          <mxGeometry relative="1" as="geometry">
            <mxPoint x="544.1300000000001" y="2184" as="sourcePoint" />
            <mxPoint x="484.5" y="2184" as="targetPoint" />
          </mxGeometry>
        </mxCell>
        <mxCell id="wdzL4Zp0LJ_PhM9Og0-m-557" value="" style="edgeStyle=orthogonalEdgeStyle;rounded=0;orthogonalLoop=1;jettySize=auto;html=1;" edge="1" parent="WIyWlLk6GJQsqaUBKTNV-1">
          <mxGeometry relative="1" as="geometry">
            <mxPoint x="584.31" y="2114" as="sourcePoint" />
            <mxPoint x="584.56" y="2144" as="targetPoint" />
          </mxGeometry>
        </mxCell>
        <mxCell id="wdzL4Zp0LJ_PhM9Og0-m-558" value="Feedback Submitted" style="rhombus;whiteSpace=wrap;html=1;" vertex="1" parent="WIyWlLk6GJQsqaUBKTNV-1">
          <mxGeometry x="544.5" y="2144" width="80" height="80" as="geometry" />
        </mxCell>
        <mxCell id="wdzL4Zp0LJ_PhM9Og0-m-559" value="Yes" style="text;html=1;align=center;verticalAlign=middle;resizable=0;points=[];autosize=1;strokeColor=none;fillColor=none;" vertex="1" parent="WIyWlLk6GJQsqaUBKTNV-1">
          <mxGeometry x="504.5" y="2142" width="40" height="30" as="geometry" />
        </mxCell>
        <mxCell id="wdzL4Zp0LJ_PhM9Og0-m-560" value="Display error" style="rounded=1;whiteSpace=wrap;html=1;" vertex="1" parent="WIyWlLk6GJQsqaUBKTNV-1">
          <mxGeometry x="704.5" y="2159" width="80" height="50" as="geometry" />
        </mxCell>
        <mxCell id="wdzL4Zp0LJ_PhM9Og0-m-561" value="" style="edgeStyle=orthogonalEdgeStyle;rounded=0;orthogonalLoop=1;jettySize=auto;html=1;entryX=0;entryY=0.5;entryDx=0;entryDy=0;" edge="1" parent="WIyWlLk6GJQsqaUBKTNV-1" target="wdzL4Zp0LJ_PhM9Og0-m-560">
          <mxGeometry relative="1" as="geometry">
            <mxPoint x="624.8699999999999" y="2183.5699999999997" as="sourcePoint" />
            <mxPoint x="684.5" y="2183.5699999999997" as="targetPoint" />
          </mxGeometry>
        </mxCell>
        <mxCell id="wdzL4Zp0LJ_PhM9Og0-m-562" value="No" style="text;html=1;align=center;verticalAlign=middle;resizable=0;points=[];autosize=1;strokeColor=none;fillColor=none;" vertex="1" parent="WIyWlLk6GJQsqaUBKTNV-1">
          <mxGeometry x="624.5" y="2142" width="40" height="30" as="geometry" />
        </mxCell>
        <mxCell id="wdzL4Zp0LJ_PhM9Og0-m-563" value="" style="ellipse;html=1;shape=endState;fillColor=#000000;strokeColor=#ff0000;" vertex="1" parent="WIyWlLk6GJQsqaUBKTNV-1">
          <mxGeometry x="568.5" y="2320" width="40" height="40" as="geometry" />
        </mxCell>
        <mxCell id="wdzL4Zp0LJ_PhM9Og0-m-564" value="" style="edgeStyle=none;orthogonalLoop=1;jettySize=auto;html=1;rounded=0;exitX=0.5;exitY=1;exitDx=0;exitDy=0;entryX=0;entryY=0.5;entryDx=0;entryDy=0;" edge="1" parent="WIyWlLk6GJQsqaUBKTNV-1" source="wdzL4Zp0LJ_PhM9Og0-m-555" target="wdzL4Zp0LJ_PhM9Og0-m-563">
          <mxGeometry width="80" relative="1" as="geometry">
            <mxPoint x="454.5" y="2263" as="sourcePoint" />
            <mxPoint x="534.5" y="2263" as="targetPoint" />
            <Array as="points">
              <mxPoint x="444.5" y="2340" />
            </Array>
          </mxGeometry>
        </mxCell>
        <mxCell id="wdzL4Zp0LJ_PhM9Og0-m-565" value="" style="edgeStyle=none;orthogonalLoop=1;jettySize=auto;html=1;rounded=0;exitX=0.5;exitY=1;exitDx=0;exitDy=0;entryX=1;entryY=0.5;entryDx=0;entryDy=0;" edge="1" parent="WIyWlLk6GJQsqaUBKTNV-1" source="wdzL4Zp0LJ_PhM9Og0-m-560" target="wdzL4Zp0LJ_PhM9Og0-m-563">
          <mxGeometry width="80" relative="1" as="geometry">
            <mxPoint x="644.5" y="2293" as="sourcePoint" />
            <mxPoint x="724.5" y="2293" as="targetPoint" />
            <Array as="points">
              <mxPoint x="744.5" y="2340" />
            </Array>
          </mxGeometry>
        </mxCell>
        <mxCell id="wdzL4Zp0LJ_PhM9Og0-m-566" value="" style="html=1;points=[];perimeter=orthogonalPerimeter;fillColor=strokeColor;direction=south;" vertex="1" parent="WIyWlLk6GJQsqaUBKTNV-1">
          <mxGeometry x="2318" y="1679" width="110" height="5" as="geometry" />
        </mxCell>
        <mxCell id="wdzL4Zp0LJ_PhM9Og0-m-567" value="" style="edgeStyle=none;orthogonalLoop=1;jettySize=auto;html=1;rounded=0;exitX=0.8;exitY=0.491;exitDx=0;exitDy=0;exitPerimeter=0;" edge="1" parent="WIyWlLk6GJQsqaUBKTNV-1" source="wdzL4Zp0LJ_PhM9Og0-m-566">
          <mxGeometry width="80" relative="1" as="geometry">
            <mxPoint x="2335" y="1750" as="sourcePoint" />
            <mxPoint x="2374" y="1760" as="targetPoint" />
            <Array as="points" />
          </mxGeometry>
        </mxCell>
        <mxCell id="wdzL4Zp0LJ_PhM9Og0-m-568" value="Normal User &lt;br&gt;&lt;u&gt;OR&lt;/u&gt; &lt;br&gt;Admin" style="rhombus;whiteSpace=wrap;html=1;" vertex="1" parent="WIyWlLk6GJQsqaUBKTNV-1">
          <mxGeometry x="2308" y="1760" width="130" height="120" as="geometry" />
        </mxCell>
        <mxCell id="wdzL4Zp0LJ_PhM9Og0-m-569" value="" style="edgeStyle=none;orthogonalLoop=1;jettySize=auto;html=1;rounded=0;exitX=0;exitY=0.5;exitDx=0;exitDy=0;entryX=0.75;entryY=0.253;entryDx=0;entryDy=0;entryPerimeter=0;" edge="1" parent="WIyWlLk6GJQsqaUBKTNV-1" source="wdzL4Zp0LJ_PhM9Og0-m-568" target="wdzL4Zp0LJ_PhM9Og0-m-96">
          <mxGeometry width="80" relative="1" as="geometry">
            <mxPoint x="2140" y="1870" as="sourcePoint" />
            <mxPoint x="2220" y="1870" as="targetPoint" />
            <Array as="points">
              <mxPoint x="1940" y="1820" />
            </Array>
          </mxGeometry>
        </mxCell>
        <mxCell id="wdzL4Zp0LJ_PhM9Og0-m-570" value="User" style="text;html=1;align=center;verticalAlign=middle;resizable=0;points=[];autosize=1;strokeColor=none;fillColor=none;" vertex="1" parent="WIyWlLk6GJQsqaUBKTNV-1">
          <mxGeometry x="2240" y="1788" width="50" height="30" as="geometry" />
        </mxCell>
        <mxCell id="wdzL4Zp0LJ_PhM9Og0-m-571" value="" style="edgeStyle=none;orthogonalLoop=1;jettySize=auto;html=1;rounded=0;exitX=1;exitY=0.5;exitDx=0;exitDy=0;entryX=0.4;entryY=0.377;entryDx=0;entryDy=0;entryPerimeter=0;" edge="1" parent="WIyWlLk6GJQsqaUBKTNV-1" source="wdzL4Zp0LJ_PhM9Og0-m-568" target="wdzL4Zp0LJ_PhM9Og0-m-573">
          <mxGeometry width="80" relative="1" as="geometry">
            <mxPoint x="2615" y="1830" as="sourcePoint" />
            <mxPoint x="3355" y="2080" as="targetPoint" />
            <Array as="points">
              <mxPoint x="2730" y="1820" />
            </Array>
          </mxGeometry>
        </mxCell>
        <mxCell id="wdzL4Zp0LJ_PhM9Og0-m-572" value="Admin" style="text;html=1;align=center;verticalAlign=middle;resizable=0;points=[];autosize=1;strokeColor=none;fillColor=none;" vertex="1" parent="WIyWlLk6GJQsqaUBKTNV-1">
          <mxGeometry x="2465" y="1788" width="60" height="30" as="geometry" />
        </mxCell>
        <mxCell id="wdzL4Zp0LJ_PhM9Og0-m-573" value="" style="html=1;points=[];perimeter=orthogonalPerimeter;fillColor=strokeColor;direction=south;" vertex="1" parent="WIyWlLk6GJQsqaUBKTNV-1">
          <mxGeometry x="1990" y="4090" width="1180" height="5" as="geometry" />
        </mxCell>
        <mxCell id="wdzL4Zp0LJ_PhM9Og0-m-574" value="" style="edgeStyle=none;orthogonalLoop=1;jettySize=auto;html=1;rounded=0;" edge="1" parent="WIyWlLk6GJQsqaUBKTNV-1">
          <mxGeometry width="80" relative="1" as="geometry">
            <mxPoint x="2030" y="4094.5" as="sourcePoint" />
            <mxPoint x="2030" y="4144.5" as="targetPoint" />
            <Array as="points" />
          </mxGeometry>
        </mxCell>
        <mxCell id="wdzL4Zp0LJ_PhM9Og0-m-577" value="" style="edgeStyle=orthogonalEdgeStyle;rounded=0;orthogonalLoop=1;jettySize=auto;html=1;" edge="1" parent="WIyWlLk6GJQsqaUBKTNV-1" source="wdzL4Zp0LJ_PhM9Og0-m-575" target="wdzL4Zp0LJ_PhM9Og0-m-576">
          <mxGeometry relative="1" as="geometry" />
        </mxCell>
        <mxCell id="wdzL4Zp0LJ_PhM9Og0-m-575" value="Manage Users" style="rounded=1;whiteSpace=wrap;html=1;" vertex="1" parent="WIyWlLk6GJQsqaUBKTNV-1">
          <mxGeometry x="1970" y="4145.5" width="120" height="60" as="geometry" />
        </mxCell>
        <mxCell id="wdzL4Zp0LJ_PhM9Og0-m-576" value="Account Managed" style="rhombus;whiteSpace=wrap;html=1;" vertex="1" parent="WIyWlLk6GJQsqaUBKTNV-1">
          <mxGeometry x="1990" y="4247.5" width="80" height="80" as="geometry" />
        </mxCell>
        <mxCell id="wdzL4Zp0LJ_PhM9Og0-m-578" value="" style="edgeStyle=none;orthogonalLoop=1;jettySize=auto;html=1;rounded=0;" edge="1" parent="WIyWlLk6GJQsqaUBKTNV-1">
          <mxGeometry width="80" relative="1" as="geometry">
            <mxPoint x="2070" y="4287.18" as="sourcePoint" />
            <mxPoint x="2190" y="4367.5" as="targetPoint" />
            <Array as="points">
              <mxPoint x="2190" y="4287.5" />
            </Array>
          </mxGeometry>
        </mxCell>
        <mxCell id="wdzL4Zp0LJ_PhM9Og0-m-579" value="display management error" style="rounded=1;whiteSpace=wrap;html=1;" vertex="1" parent="WIyWlLk6GJQsqaUBKTNV-1">
          <mxGeometry x="2130" y="4367.5" width="120" height="60" as="geometry" />
        </mxCell>
        <mxCell id="wdzL4Zp0LJ_PhM9Og0-m-580" value="" style="edgeStyle=none;orthogonalLoop=1;jettySize=auto;html=1;rounded=0;exitX=0;exitY=0.5;exitDx=0;exitDy=0;" edge="1" parent="WIyWlLk6GJQsqaUBKTNV-1" source="wdzL4Zp0LJ_PhM9Og0-m-576">
          <mxGeometry width="80" relative="1" as="geometry">
            <mxPoint x="2020" y="4337.5" as="sourcePoint" />
            <mxPoint x="1870" y="4367.5" as="targetPoint" />
            <Array as="points">
              <mxPoint x="1870" y="4287.5" />
            </Array>
          </mxGeometry>
        </mxCell>
        <mxCell id="wdzL4Zp0LJ_PhM9Og0-m-581" value="display message confirmation" style="rounded=1;whiteSpace=wrap;html=1;" vertex="1" parent="WIyWlLk6GJQsqaUBKTNV-1">
          <mxGeometry x="1810" y="4367.5" width="120" height="60" as="geometry" />
        </mxCell>
        <mxCell id="wdzL4Zp0LJ_PhM9Og0-m-582" value="" style="edgeStyle=none;orthogonalLoop=1;jettySize=auto;html=1;rounded=0;entryX=0.5;entryY=0;entryDx=0;entryDy=0;" edge="1" parent="WIyWlLk6GJQsqaUBKTNV-1" target="wdzL4Zp0LJ_PhM9Og0-m-587">
          <mxGeometry width="80" relative="1" as="geometry">
            <mxPoint x="2479.68" y="4093" as="sourcePoint" />
            <mxPoint x="2479.68" y="4139.5" as="targetPoint" />
            <Array as="points" />
          </mxGeometry>
        </mxCell>
        <mxCell id="wdzL4Zp0LJ_PhM9Og0-m-584" value="Yes" style="text;html=1;align=center;verticalAlign=middle;resizable=0;points=[];autosize=1;strokeColor=none;fillColor=none;" vertex="1" parent="WIyWlLk6GJQsqaUBKTNV-1">
          <mxGeometry x="1950" y="4255.5" width="40" height="30" as="geometry" />
        </mxCell>
        <mxCell id="wdzL4Zp0LJ_PhM9Og0-m-585" value="No" style="text;html=1;align=center;verticalAlign=middle;resizable=0;points=[];autosize=1;strokeColor=none;fillColor=none;" vertex="1" parent="WIyWlLk6GJQsqaUBKTNV-1">
          <mxGeometry x="2070" y="4252.5" width="40" height="30" as="geometry" />
        </mxCell>
        <mxCell id="wdzL4Zp0LJ_PhM9Og0-m-587" value="Manage &amp;amp; Flag Fraudlent Transactions" style="rounded=1;whiteSpace=wrap;html=1;" vertex="1" parent="WIyWlLk6GJQsqaUBKTNV-1">
          <mxGeometry x="2420" y="4145.5" width="120" height="60" as="geometry" />
        </mxCell>
        <mxCell id="wdzL4Zp0LJ_PhM9Og0-m-588" value="" style="edgeStyle=orthogonalEdgeStyle;rounded=0;orthogonalLoop=1;jettySize=auto;html=1;" edge="1" parent="WIyWlLk6GJQsqaUBKTNV-1" target="wdzL4Zp0LJ_PhM9Og0-m-589">
          <mxGeometry relative="1" as="geometry">
            <mxPoint x="2490" y="4205.5" as="sourcePoint" />
          </mxGeometry>
        </mxCell>
        <mxCell id="wdzL4Zp0LJ_PhM9Og0-m-589" value="&lt;font style=&quot;font-size: 11px;&quot;&gt;Transactions Flagged&lt;/font&gt;" style="rhombus;whiteSpace=wrap;html=1;" vertex="1" parent="WIyWlLk6GJQsqaUBKTNV-1">
          <mxGeometry x="2450" y="4247.5" width="80" height="80" as="geometry" />
        </mxCell>
        <mxCell id="wdzL4Zp0LJ_PhM9Og0-m-590" value="" style="edgeStyle=none;orthogonalLoop=1;jettySize=auto;html=1;rounded=0;" edge="1" parent="WIyWlLk6GJQsqaUBKTNV-1">
          <mxGeometry width="80" relative="1" as="geometry">
            <mxPoint x="2530" y="4287.18" as="sourcePoint" />
            <mxPoint x="2650" y="4367.5" as="targetPoint" />
            <Array as="points">
              <mxPoint x="2650" y="4287.5" />
            </Array>
          </mxGeometry>
        </mxCell>
        <mxCell id="wdzL4Zp0LJ_PhM9Og0-m-591" value="display monitoring error" style="rounded=1;whiteSpace=wrap;html=1;" vertex="1" parent="WIyWlLk6GJQsqaUBKTNV-1">
          <mxGeometry x="2590" y="4364" width="120" height="60" as="geometry" />
        </mxCell>
        <mxCell id="wdzL4Zp0LJ_PhM9Og0-m-592" value="" style="edgeStyle=none;orthogonalLoop=1;jettySize=auto;html=1;rounded=0;exitX=0;exitY=0.5;exitDx=0;exitDy=0;" edge="1" parent="WIyWlLk6GJQsqaUBKTNV-1" source="wdzL4Zp0LJ_PhM9Og0-m-589">
          <mxGeometry width="80" relative="1" as="geometry">
            <mxPoint x="2480" y="4337.5" as="sourcePoint" />
            <mxPoint x="2330" y="4367.5" as="targetPoint" />
            <Array as="points">
              <mxPoint x="2330" y="4287.5" />
            </Array>
          </mxGeometry>
        </mxCell>
        <mxCell id="wdzL4Zp0LJ_PhM9Og0-m-593" value="display message confirmation" style="rounded=1;whiteSpace=wrap;html=1;" vertex="1" parent="WIyWlLk6GJQsqaUBKTNV-1">
          <mxGeometry x="2270" y="4367.5" width="120" height="60" as="geometry" />
        </mxCell>
        <mxCell id="wdzL4Zp0LJ_PhM9Og0-m-594" value="Yes" style="text;html=1;align=center;verticalAlign=middle;resizable=0;points=[];autosize=1;strokeColor=none;fillColor=none;" vertex="1" parent="WIyWlLk6GJQsqaUBKTNV-1">
          <mxGeometry x="2410" y="4255.5" width="40" height="30" as="geometry" />
        </mxCell>
        <mxCell id="wdzL4Zp0LJ_PhM9Og0-m-595" value="No" style="text;html=1;align=center;verticalAlign=middle;resizable=0;points=[];autosize=1;strokeColor=none;fillColor=none;" vertex="1" parent="WIyWlLk6GJQsqaUBKTNV-1">
          <mxGeometry x="2530" y="4252.5" width="40" height="30" as="geometry" />
        </mxCell>
        <mxCell id="wdzL4Zp0LJ_PhM9Og0-m-596" value="" style="edgeStyle=none;orthogonalLoop=1;jettySize=auto;html=1;rounded=0;entryX=0.5;entryY=0;entryDx=0;entryDy=0;" edge="1" parent="WIyWlLk6GJQsqaUBKTNV-1" target="wdzL4Zp0LJ_PhM9Og0-m-597">
          <mxGeometry width="80" relative="1" as="geometry">
            <mxPoint x="2939.68" y="4095" as="sourcePoint" />
            <mxPoint x="2939.68" y="4141.5" as="targetPoint" />
            <Array as="points" />
          </mxGeometry>
        </mxCell>
        <mxCell id="wdzL4Zp0LJ_PhM9Og0-m-597" value="Generate Report" style="rounded=1;whiteSpace=wrap;html=1;" vertex="1" parent="WIyWlLk6GJQsqaUBKTNV-1">
          <mxGeometry x="2880" y="4147.5" width="120" height="60" as="geometry" />
        </mxCell>
        <mxCell id="wdzL4Zp0LJ_PhM9Og0-m-598" value="" style="edgeStyle=orthogonalEdgeStyle;rounded=0;orthogonalLoop=1;jettySize=auto;html=1;" edge="1" parent="WIyWlLk6GJQsqaUBKTNV-1" target="wdzL4Zp0LJ_PhM9Og0-m-599">
          <mxGeometry relative="1" as="geometry">
            <mxPoint x="2950" y="4207.5" as="sourcePoint" />
          </mxGeometry>
        </mxCell>
        <mxCell id="wdzL4Zp0LJ_PhM9Og0-m-599" value="&lt;font style=&quot;font-size: 11px;&quot;&gt;Report Generated&lt;/font&gt;" style="rhombus;whiteSpace=wrap;html=1;" vertex="1" parent="WIyWlLk6GJQsqaUBKTNV-1">
          <mxGeometry x="2910" y="4249.5" width="80" height="80" as="geometry" />
        </mxCell>
        <mxCell id="wdzL4Zp0LJ_PhM9Og0-m-600" value="" style="edgeStyle=none;orthogonalLoop=1;jettySize=auto;html=1;rounded=0;" edge="1" parent="WIyWlLk6GJQsqaUBKTNV-1">
          <mxGeometry width="80" relative="1" as="geometry">
            <mxPoint x="2990" y="4289.18" as="sourcePoint" />
            <mxPoint x="3110" y="4369.5" as="targetPoint" />
            <Array as="points">
              <mxPoint x="3110" y="4289.5" />
            </Array>
          </mxGeometry>
        </mxCell>
        <mxCell id="wdzL4Zp0LJ_PhM9Og0-m-601" value="Display Report Generation Error" style="rounded=1;whiteSpace=wrap;html=1;" vertex="1" parent="WIyWlLk6GJQsqaUBKTNV-1">
          <mxGeometry x="3050" y="4369.5" width="120" height="60" as="geometry" />
        </mxCell>
        <mxCell id="wdzL4Zp0LJ_PhM9Og0-m-602" value="" style="edgeStyle=none;orthogonalLoop=1;jettySize=auto;html=1;rounded=0;exitX=0;exitY=0.5;exitDx=0;exitDy=0;" edge="1" parent="WIyWlLk6GJQsqaUBKTNV-1" source="wdzL4Zp0LJ_PhM9Og0-m-599">
          <mxGeometry width="80" relative="1" as="geometry">
            <mxPoint x="2940" y="4339.5" as="sourcePoint" />
            <mxPoint x="2790" y="4369.5" as="targetPoint" />
            <Array as="points">
              <mxPoint x="2790" y="4289.5" />
            </Array>
          </mxGeometry>
        </mxCell>
        <mxCell id="wdzL4Zp0LJ_PhM9Og0-m-603" value="Download Report" style="rounded=1;whiteSpace=wrap;html=1;" vertex="1" parent="WIyWlLk6GJQsqaUBKTNV-1">
          <mxGeometry x="2730" y="4369.5" width="120" height="60" as="geometry" />
        </mxCell>
        <mxCell id="wdzL4Zp0LJ_PhM9Og0-m-604" value="Yes" style="text;html=1;align=center;verticalAlign=middle;resizable=0;points=[];autosize=1;strokeColor=none;fillColor=none;" vertex="1" parent="WIyWlLk6GJQsqaUBKTNV-1">
          <mxGeometry x="2870" y="4257.5" width="40" height="30" as="geometry" />
        </mxCell>
        <mxCell id="wdzL4Zp0LJ_PhM9Og0-m-605" value="No" style="text;html=1;align=center;verticalAlign=middle;resizable=0;points=[];autosize=1;strokeColor=none;fillColor=none;" vertex="1" parent="WIyWlLk6GJQsqaUBKTNV-1">
          <mxGeometry x="2990" y="4254.5" width="40" height="30" as="geometry" />
        </mxCell>
        <mxCell id="wdzL4Zp0LJ_PhM9Og0-m-606" value="" style="ellipse;html=1;shape=endState;fillColor=#000000;strokeColor=#ff0000;" vertex="1" parent="WIyWlLk6GJQsqaUBKTNV-1">
          <mxGeometry x="2470" y="4667.5" width="40" height="40" as="geometry" />
        </mxCell>
        <mxCell id="wdzL4Zp0LJ_PhM9Og0-m-607" value="" style="edgeStyle=none;orthogonalLoop=1;jettySize=auto;html=1;rounded=0;exitX=0.5;exitY=1;exitDx=0;exitDy=0;entryX=0;entryY=1;entryDx=0;entryDy=0;" edge="1" parent="WIyWlLk6GJQsqaUBKTNV-1" source="wdzL4Zp0LJ_PhM9Og0-m-581" target="wdzL4Zp0LJ_PhM9Og0-m-606">
          <mxGeometry width="80" relative="1" as="geometry">
            <mxPoint x="1940" y="4477.5" as="sourcePoint" />
            <mxPoint x="2020" y="4477.5" as="targetPoint" />
            <Array as="points">
              <mxPoint x="1870" y="4687.5" />
            </Array>
          </mxGeometry>
        </mxCell>
        <mxCell id="wdzL4Zp0LJ_PhM9Og0-m-608" value="" style="edgeStyle=none;orthogonalLoop=1;jettySize=auto;html=1;rounded=0;exitX=0.5;exitY=1;exitDx=0;exitDy=0;entryX=0;entryY=0.5;entryDx=0;entryDy=0;" edge="1" parent="WIyWlLk6GJQsqaUBKTNV-1" source="wdzL4Zp0LJ_PhM9Og0-m-579" target="wdzL4Zp0LJ_PhM9Og0-m-606">
          <mxGeometry width="80" relative="1" as="geometry">
            <mxPoint x="2090" y="4567.5" as="sourcePoint" />
            <mxPoint x="2170" y="4567.5" as="targetPoint" />
            <Array as="points">
              <mxPoint x="2190" y="4677.5" />
            </Array>
          </mxGeometry>
        </mxCell>
        <mxCell id="wdzL4Zp0LJ_PhM9Og0-m-609" value="" style="edgeStyle=none;orthogonalLoop=1;jettySize=auto;html=1;rounded=0;exitX=0.5;exitY=1;exitDx=0;exitDy=0;entryX=0.037;entryY=0.249;entryDx=0;entryDy=0;entryPerimeter=0;" edge="1" parent="WIyWlLk6GJQsqaUBKTNV-1" source="wdzL4Zp0LJ_PhM9Og0-m-593" target="wdzL4Zp0LJ_PhM9Og0-m-606">
          <mxGeometry width="80" relative="1" as="geometry">
            <mxPoint x="2230" y="4487.5" as="sourcePoint" />
            <mxPoint x="2310" y="4487.5" as="targetPoint" />
            <Array as="points">
              <mxPoint x="2330" y="4667.5" />
            </Array>
          </mxGeometry>
        </mxCell>
        <mxCell id="wdzL4Zp0LJ_PhM9Og0-m-610" value="" style="edgeStyle=none;orthogonalLoop=1;jettySize=auto;html=1;rounded=0;exitX=0.5;exitY=1;exitDx=0;exitDy=0;entryX=1;entryY=0;entryDx=0;entryDy=0;" edge="1" parent="WIyWlLk6GJQsqaUBKTNV-1" source="wdzL4Zp0LJ_PhM9Og0-m-591" target="wdzL4Zp0LJ_PhM9Og0-m-606">
          <mxGeometry width="80" relative="1" as="geometry">
            <mxPoint x="2790" y="4527.5" as="sourcePoint" />
            <mxPoint x="2870" y="4527.5" as="targetPoint" />
            <Array as="points">
              <mxPoint x="2650" y="4673.5" />
            </Array>
          </mxGeometry>
        </mxCell>
        <mxCell id="wdzL4Zp0LJ_PhM9Og0-m-611" value="" style="edgeStyle=none;orthogonalLoop=1;jettySize=auto;html=1;rounded=0;exitX=0.5;exitY=1;exitDx=0;exitDy=0;entryX=1;entryY=0.5;entryDx=0;entryDy=0;" edge="1" parent="WIyWlLk6GJQsqaUBKTNV-1" source="wdzL4Zp0LJ_PhM9Og0-m-603" target="wdzL4Zp0LJ_PhM9Og0-m-606">
          <mxGeometry width="80" relative="1" as="geometry">
            <mxPoint x="2720" y="4647.5" as="sourcePoint" />
            <mxPoint x="2800" y="4647.5" as="targetPoint" />
            <Array as="points">
              <mxPoint x="2790" y="4687.5" />
            </Array>
          </mxGeometry>
        </mxCell>
        <mxCell id="wdzL4Zp0LJ_PhM9Og0-m-612" value="" style="edgeStyle=none;orthogonalLoop=1;jettySize=auto;html=1;rounded=0;exitX=0.5;exitY=1;exitDx=0;exitDy=0;entryX=1;entryY=1;entryDx=0;entryDy=0;" edge="1" parent="WIyWlLk6GJQsqaUBKTNV-1" source="wdzL4Zp0LJ_PhM9Og0-m-601" target="wdzL4Zp0LJ_PhM9Og0-m-606">
          <mxGeometry width="80" relative="1" as="geometry">
            <mxPoint x="2920" y="4587.5" as="sourcePoint" />
            <mxPoint x="3000" y="4587.5" as="targetPoint" />
            <Array as="points">
              <mxPoint x="3110" y="4697.5" />
            </Array>
          </mxGeometry>
        </mxCell>
        <mxCell id="wdzL4Zp0LJ_PhM9Og0-m-613" value="" style="edgeStyle=none;orthogonalLoop=1;jettySize=auto;html=1;rounded=0;exitX=0.555;exitY=0.98;exitDx=0;exitDy=0;exitPerimeter=0;entryX=0.141;entryY=0.569;entryDx=0;entryDy=0;entryPerimeter=0;" edge="1" parent="WIyWlLk6GJQsqaUBKTNV-1" source="wdzL4Zp0LJ_PhM9Og0-m-539" target="wdzL4Zp0LJ_PhM9Og0-m-550">
          <mxGeometry width="80" relative="1" as="geometry">
            <mxPoint x="370" y="4310" as="sourcePoint" />
            <mxPoint x="450" y="4310" as="targetPoint" />
            <Array as="points">
              <mxPoint x="460" y="4330" />
            </Array>
          </mxGeometry>
        </mxCell>
        <mxCell id="wdzL4Zp0LJ_PhM9Og0-m-614" style="edgeStyle=orthogonalEdgeStyle;rounded=0;orthogonalLoop=1;jettySize=auto;html=1;exitX=0.75;exitY=1;exitDx=0;exitDy=0;" edge="1" parent="WIyWlLk6GJQsqaUBKTNV-1" source="wdzL4Zp0LJ_PhM9Og0-m-252" target="wdzL4Zp0LJ_PhM9Og0-m-252">
          <mxGeometry relative="1" as="geometry" />
        </mxCell>
        <mxCell id="wdzL4Zp0LJ_PhM9Og0-m-616" value="No" style="text;html=1;align=center;verticalAlign=middle;resizable=0;points=[];autosize=1;strokeColor=none;fillColor=none;" vertex="1" parent="WIyWlLk6GJQsqaUBKTNV-1">
          <mxGeometry x="750" y="4008" width="40" height="30" as="geometry" />
        </mxCell>
        <mxCell id="wdzL4Zp0LJ_PhM9Og0-m-617" value="" style="edgeStyle=none;orthogonalLoop=1;jettySize=auto;html=1;rounded=0;exitX=1;exitY=0.5;exitDx=0;exitDy=0;" edge="1" parent="WIyWlLk6GJQsqaUBKTNV-1" source="wdzL4Zp0LJ_PhM9Og0-m-543">
          <mxGeometry width="80" relative="1" as="geometry">
            <mxPoint x="750" y="4090" as="sourcePoint" />
            <mxPoint x="840" y="4080" as="targetPoint" />
            <Array as="points">
              <mxPoint x="840" y="4040" />
            </Array>
          </mxGeometry>
        </mxCell>
        <mxCell id="wdzL4Zp0LJ_PhM9Og0-m-618" value="Display Error" style="rounded=1;whiteSpace=wrap;html=1;" vertex="1" parent="WIyWlLk6GJQsqaUBKTNV-1">
          <mxGeometry x="801" y="4081" width="80" height="50" as="geometry" />
        </mxCell>
        <mxCell id="wdzL4Zp0LJ_PhM9Og0-m-619" value="" style="edgeStyle=none;orthogonalLoop=1;jettySize=auto;html=1;rounded=0;exitX=0.5;exitY=1;exitDx=0;exitDy=0;entryX=1;entryY=0;entryDx=0;entryDy=0;" edge="1" parent="WIyWlLk6GJQsqaUBKTNV-1" source="wdzL4Zp0LJ_PhM9Og0-m-618" target="wdzL4Zp0LJ_PhM9Og0-m-550">
          <mxGeometry width="80" relative="1" as="geometry">
            <mxPoint x="790" y="4220" as="sourcePoint" />
            <mxPoint x="870" y="4220" as="targetPoint" />
            <Array as="points">
              <mxPoint x="841" y="4320" />
            </Array>
          </mxGeometry>
        </mxCell>
      </root>
    </mxGraphModel>
  </diagram>
</mxfile>
